<?xml version="1.0" encoding="UTF-8"?>
<svg xmlns="http://www.w3.org/2000/svg" viewBox="0 0 1200 300">
  <defs>
    <style>
      .cls-1 {
        mix-blend-mode: multiply;
        opacity: .78;
      }

      .cls-1, .cls-2 {
        fill: none;
      }

      .cls-3 {
        fill: #1362e2;
      }

      .cls-2 {
        isolation: isolate;
      }
    </style>
  </defs>
  <g class="cls-2">
    <g id="_レイヤー_1" data-name="レイヤー 1">
      <g>
        <path d="m66.52,117.85v-6.25l1.25-.05c5.52-.22,10.04-1.25,13.57-3.08,7.09-3.66,10.97-10.71,11.64-21.17.06-.67.1-1.71.1-3.1s-.03-2.33-.1-2.81l-.05-.63h-26.42v-31.76h58.66l.1,1.54c0,.29.02.81.07,1.56.05.75.09,1.28.12,1.56.16,2.18.26,4.86.29,8.04.19,12.7-1.49,23.48-5.05,32.33-.35.93-.53,1.44-.53,1.54.06,1.03.46,2.47,1.2,4.33,1.35,3.5,3.46,6.25,6.35,8.25,2.89,2,6.35,3.14,10.39,3.39l.87.05v12.51h-1.54c-1.7,0-3.61-.16-5.73-.48-9.4-1.32-16.99-5.2-22.76-11.64l-.48-.53-.77.62c-8.21,6.67-19.25,10.59-33.1,11.74-2.47.19-4.46.29-5.97.29h-2.12v-6.26Z"/>
        <path d="m153.33,118.19v-6.4l1.73-.05c2.98-.1,5.61-.55,7.89-1.35,3.08-1.06,5.77-2.73,8.06-5,2.29-2.28,4.1-5.07,5.41-8.37,1.28-3.18,2.13-6.98,2.55-11.4.03-.54.05-1.76.05-3.66s-.02-3.05-.05-3.46l-.05-.53h-33.88v-26.85h66.69l-.05,4.81c-.13,15.94-1.35,28.45-3.66,37.53-1.03,3.98-2.2,7.31-3.51,10.01-1.19,2.41-2.45,4.44-3.8,6.11-1.22,1.54-2.68,3.02-4.38,4.43-1.89,1.6-3.95,3.05-6.16,4.33-2.98,1.7-6.31,3.01-9.98,3.92-3.67.91-8.19,1.55-13.54,1.9-3.88.29-7.75.43-11.6.43h-1.73v-6.4Zm41.19-71.17c-.67-.1-1.14-.16-1.4-.19-2.15-.26-4.07-1.23-5.77-2.94-2.02-1.96-3.21-4.27-3.56-6.93-.03-.38-.1-.83-.19-1.35-.03-.35-.05-.96-.05-1.83s.03-1.35.1-1.44c.03-.06.08-.32.14-.77.16-1.31.79-2.7,1.9-4.16,1.11-1.46,2.48-2.7,4.11-3.73.9-.54,1.89-1.01,2.98-1.4.74-.22,1.87-.39,3.39-.48,1.52-.1,2.8-.06,3.83.1,1.92.26,3.74,1.33,5.44,3.22,1.15,1.32,2.05,2.82,2.69,4.52.32.96.53,2.18.63,3.66.06,1.03.13,1.51.19,1.44v.53c-.03.1-.06.36-.07.79-.02.43-.02.75-.02.94-.03,1.15-.21,2.13-.53,2.94-.64,1.76-1.72,3.3-3.22,4.6-1.51,1.3-3.13,2.08-4.86,2.33-2.31.32-4.22.37-5.73.14Zm2.89-8.85c1.31-.26,2.17-1.03,2.55-2.31.1-.38.13-.87.1-1.44-.03-.93-.24-1.68-.63-2.26-.74-1.19-1.92-1.68-3.56-1.49-.83.1-1.6.5-2.31,1.2-.61.61-.96,1.22-1.06,1.83-.23,1.09-.05,2.07.53,2.94.48.71,1.04,1.17,1.68,1.4.77.29,1.67.34,2.69.14Z"/>
        <path d="m225.55,118.48v-5.15h.96c.54,0,1.23-.03,2.07-.1,5.65-.38,10.51-1.68,14.58-3.87,4.07-2.2,7.06-5.12,8.95-8.78,1.25-2.37,1.99-5.05,2.21-8.04l.05-.58h-36.43v-24.25h64.72v2.07c0,5.68-.06,10.31-.19,13.91-.35,10.68-1.36,18.06-3.03,22.13-.74,1.73-1.72,3.43-2.94,5.1-1.38,1.89-2.41,3.18-3.08,3.85-4.72,4.71-14.55,7.54-29.5,8.47-2.63.16-6.46.26-11.5.29l-6.88.05v-5.1Zm1.88-65.25v-10.25h41.86v20.45h-41.86v-10.2Z"/>
        <path d="m288.73,121.51c.1-.29.21-.58.34-.87.06-.13.14-.32.24-.58.1-.26.22-.57.36-.94.14-.37.26-.65.36-.84,4.17-10.36,7.07-20.15,8.71-29.38,1.64-9.22,2.53-20.7,2.69-34.43l.05-4.67h27.62v4.28c-.03,7.22-.18,13.14-.43,17.76-.48,10.01-1.56,18.69-3.25,26.03-1.68,7.35-4.29,14.72-7.82,22.13l-.72,1.49h-28.15Zm60.82-.87c-3.59-6.06-6.25-12.13-7.96-18.21-1.72-6.08-2.81-13.27-3.3-21.58-.29-5.04-.43-10.17-.43-15.4v-2.6h27.57v.24c0,2.18.08,5.6.24,10.25.32,7.96,1.11,14.92,2.38,20.88,1.27,5.97,3.23,12.03,5.89,18.19.87,2.02,1.91,4.27,3.13,6.74l1.11,2.36h-28.1l-.53-.87Zm-4.67-72.47v-10.78h12.13v21.56h-12.13v-10.78Zm15.54,0v-10.78h12.13v21.56h-12.13v-10.78Z"/>
        <path d="m386.27,120.98c-.29-.45-.62-.95-.99-1.49-.37-.54-.63-.95-.79-1.2l-.29-.43s.5-.54,1.49-1.54c1.28-1.25,2.47-2.58,3.56-3.99,3.88-5.07,6.27-11.61,7.17-19.63.35-3.27.51-8.15.48-14.63v-15.4l.05-9.77h22.23l-.05,14.24c0,8.56-.05,13.91-.14,16.02-.29,6.26-.72,11.12-1.3,14.58-.48,2.89-1.07,5.22-1.76,7-.69,1.78-1.64,3.44-2.86,4.98-1.06,1.32-2.23,2.53-3.51,3.66-4.62,3.98-11.07,7.36-19.34,10.15-1.06.35-1.64.53-1.73.53-.13,0-.87-1.03-2.21-3.08Zm39.7-34.6v-33.49h21.89v42.3h.72c1.64,0,3.06-.1,4.28-.29,2.69-.35,4.7-1.19,6.01-2.5.54-.58,1.04-1.3,1.49-2.17.9-1.86,1.43-4.14,1.59-6.83l.05-.82.72.05c.26.03,1.48.05,3.66.05h2.94v3.95c0,4.3-.14,7.73-.43,10.3-.8,6.86-2.92,12.06-6.35,15.59-3.98,4.14-10.47,6.53-19.49,7.17-1.89.13-5.69.19-11.4.19h-5.68v-33.49Z"/>
        <path d="m475.38,81.23v-13.67h52.59v27.28h-52.59v-13.62Z"/>
        <path d="m535.38,124.01h-1.35v-28.2l1.2-.05c.45-.03,1.46-.05,3.03-.05,4.62,0,9.17-.22,13.67-.67,9.17-.93,15.73-3.03,19.68-6.3,4.3-3.62,7.86-8.29,10.68-14,2.63-5.39,4.38-11.24,5.24-17.56.35-2.63.53-5.13.53-7.51v-.87h16.02v10.35c0,9.11-.18,15.59-.53,19.44-.87,9.75-2.8,17.66-5.8,23.72-3,6.06-7.32,10.81-12.97,14.24-5.2,3.14-11.76,5.29-19.68,6.45-3.79.55-8.55.88-14.29,1.01-4.78.06-9.93.06-15.45,0Zm-1.35-60.29v-11.89h17.66l17.71.05v23.72h-17.71l-17.66.05v-11.93Z"/>
        <path d="m700.47,96c0,13.99-11.63,24.14-28.28,24.14-10.05,0-18.33-5.22-18.33-12.71,0-9.61,15.03-10.83,20.13-8.08-.6-8.67-5.17-8.58-16.78-6.2v-5.03c4.14-2.56,7.49-3.45,14.98-3.45,13.21,0,12.42,9.16,14.39,16.46.39,1.28,1.48,2.17,2.27,2.17,2.56-.1,5.12-3.65,5.12-7.59,0-10.94-10.94-20.3-23.45-20.3-14.98,0-25.92,10.15-25.92,27.2,0,15.77,12.61,25.92,27.59,25.92,11.73,0,21.68-4.24,28.38-10.94v10.94c-5.81,4.24-17.54,5.91-28.38,5.91-18.33,0-32.52-11.83-32.52-32.03,0-18.53,10.84-32.03,34.19-32.03,15.87,0,26.61,12.71,26.61,25.62Zm-34.59,13.4c0,4.24,3.05,5.62,6.41,5.62,1.97,0,4.14-.79,4.93-1.67-1.24-1.9-2.37-4.17-2.88-7.66-4.82-.8-8.46-.4-8.46,3.72Z"/>
        <path d="m730.14,117.71l.1-.29c.03-.16.1-.41.19-.75.1-.34.19-.65.29-.94,2.34-7.89,4.33-15.86,5.97-23.91.83-3.91,1.25-6.21,1.25-6.88v-.19h16.41l-.05,6.5c0,.93,0,2.07-.02,3.42-.02,1.35-.03,2.44-.05,3.27-.02.83-.02,1.4-.02,1.68-.26,6.22-.64,11.84-1.15,16.84l-.1,1.35h-11.4c-7.6,0-11.4-.03-11.4-.1Zm40.23,5.58c-2.6-.13-5.28-.48-8.04-1.06-2.47-.51-4.17-.93-5.1-1.25l-.43-.14v-4.09l.05-4.09c.32.06.69.14,1.11.24,4.94,1.03,8.48.96,10.61-.19,2.13-1.16,3.2-3.58,3.2-7.27,0-1.41-.11-2.68-.34-3.8-.51-2.47-1.57-4.51-3.18-6.11-2.15-2.15-5.02-3.34-8.61-3.56l-.77-.05v-7.65c0-5.52.02-8.53.05-9.05l.05-1.4.53-.05c4.01-.32,7.59-1.19,10.73-2.6,1.89-.87,3.4-1.76,4.52-2.69l.53-.43-8.18-.05h-8.13l-.05-.63v-10.44l.05-9.86h34.21l.19.87c.99,5.2,1.25,9.78.77,13.76-.77,6.26-3.22,10.75-7.36,13.47-1.67,1.06-3.63,1.84-5.87,2.36-1.51.32-2.57.48-3.18.48-.26,0-.39.02-.39.05s.27.18.82.43c2.02.96,3.62,1.8,4.81,2.5,1.99,1.19,3.75,2.55,5.29,4.09,2.05,2.05,3.69,4.3,4.91,6.74,1.7,3.4,2.55,6.95,2.55,10.63,0,3.34-.72,6.43-2.17,9.29-1.35,2.57-3.18,4.8-5.49,6.69-1.73,1.38-3.51,2.44-5.34,3.18-1.83.74-3.98,1.25-6.45,1.54-1.89.19-3.87.24-5.92.14Zm26.99-74.53v-10.78h12.12v21.51h-12.12v-10.73Zm4.43,67.75c-2.21-9.21-3.27-19.06-3.18-29.54v-2.17l8.37-.05h8.42l.67,3.18c1.54,7.38,3.56,16.36,6.06,26.95.42,1.86.63,2.81.63,2.84,0,.07-3.45.1-10.35.1h-10.3l-.34-1.3Zm11.12-67.75v-10.78h12.13v21.51h-12.13v-10.73Z"/>
        <path d="m832.44,124.01l.1-.63c.06-.42.15-1.01.26-1.78.11-.77.22-1.51.31-2.21,1.16-8.08,2.26-16.65,3.32-25.69.48-4.17,1.01-8.85,1.59-14.05v-.24h-6.93v-22.86h4.62c3.08,0,4.62-.05,4.62-.14,0-.22.08-1.09.24-2.6.06-.51.14-1.31.24-2.38.1-1.07.14-1.69.14-1.85.03-.26.06-.57.07-.94.02-.37.04-.66.07-.87.03-.21.05-.34.05-.41l.05-.43h20.45l-.05,4.81v4.81h9v22.86h-9.86v.14c0,.1-.21,3.38-.63,9.86-.87,12.48-2.08,23.66-3.66,33.54l-.14,1.11-11.93.05c-7.96,0-11.93-.03-11.93-.1Zm54.13,0c-6.61-.42-11.36-2.12-14.24-5.1-4.56-4.72-4.35-12.48.62-23.29.42-.93.83-1.78,1.25-2.55l.53-1.01h5.34l-.05.14s-.11.4-.24,1.11c-.45,2.37-.32,4.25.38,5.63.74,1.41,2.25,2.39,4.52,2.94,1.41.35,3.43.53,6.06.53,1.92,0,3.37-.03,4.33-.1,2.5-.22,6.03-.61,10.58-1.15,1.28-.16,1.99-.24,2.12-.24.06,0,.1,3.77.1,11.31v11.26l-.34.05c-1.19.19-3.74.34-7.65.43-1.64.06-4.09.1-7.36.1s-5.26-.02-5.97-.05Zm-10.3-46.91v-11.21h31.61v22.37h-31.61v-11.16Z"/>
        <path d="m913.9,121.27c.1-.29.21-.58.34-.87.1-.22.42-.99.96-2.31,4.17-10.36,7.07-20.16,8.71-29.4,1.64-9.24,2.53-20.72,2.69-34.45l.05-4.67h27.62v4.33c-.03,7.22-.18,13.14-.43,17.76-.48,10.01-1.56,18.68-3.25,26.01-1.68,7.33-4.29,14.7-7.82,22.11l-.72,1.49h-28.15Zm60.82-.87c-3.59-6.06-6.25-12.13-7.96-18.21-1.72-6.08-2.82-13.27-3.3-21.58-.29-5.04-.43-10.17-.43-15.4v-2.6h27.57v.24c0,2.18.08,5.6.24,10.25.32,7.96,1.11,14.92,2.38,20.88,1.27,5.97,3.23,12.03,5.89,18.19.99,2.31,2.04,4.57,3.13,6.78l1.11,2.31c-4.2.03-8.89.05-14.05.05h-14.05l-.53-.91Zm3.18-61.88c-.1-.03-.51-.08-1.25-.14-1.44-.13-2.76-.5-3.95-1.11-1.73-.9-3.22-2.25-4.45-4.04-1.24-1.8-1.95-3.64-2.14-5.53,0-.06-.02-.23-.05-.5-.03-.27-.06-.46-.1-.55-.06-.26-.09-.93-.07-2.02.02-1.09.06-1.67.12-1.73.03-.03.08-.24.14-.63.16-1.67,1.08-3.46,2.77-5.37,1.68-1.91,3.6-3.33,5.75-4.26,1.44-.61,3.56-.9,6.35-.87,2.08.03,3.66.32,4.72.87,1.7.87,3.21,2.28,4.52,4.23,1.31,1.92,2.07,3.71,2.26,5.34.03.19.08.9.14,2.12l.14,1.3c.03.1.05.19.05.29,0,.23-.03.82-.1,1.78-.03.35-.11,1.01-.24,1.97-.35,1.86-1.2,3.53-2.55,5-1.86,2.09-3.99,3.3-6.4,3.66-2.34.35-4.23.42-5.68.19Zm2.79-9.43c.64-.16,1.21-.47,1.71-.94.5-.46.81-1.02.94-1.66.06-.32.08-.79.05-1.42-.03-.63-.11-1.1-.24-1.42-.38-1.09-1.04-1.86-1.97-2.31-.26-.13-.74-.19-1.44-.19-.96,0-1.73.18-2.31.53-.8.45-1.38,1.04-1.73,1.78-.55,1.12-.52,2.32.07,3.58.59,1.27,1.48,1.97,2.67,2.09.74.1,1.49.08,2.26-.05Z"/>
        <path d="m1009.36,81.23v-13.67h52.59v27.28h-52.59v-13.62Z"/>
        <path d="m1073.17,119.2l.05-4.23,1.01-.38c6.51-2.31,12.37-5.73,17.56-10.25,1.57-1.38,3.16-2.98,4.76-4.81,6.19-7.12,10.28-15.38,12.27-24.78l.05-.24h-13.81l-2.12,7.22-2.07,7.17h-11.4c-7.63,0-11.45-.03-11.45-.1,0-.03,1.96-6.82,5.87-20.35l5.87-20.26,29.54-.05c19.66,0,29.5.03,29.5.1,0,.1-.7,4.45-2.09,13.06-1.4,8.61-2.13,13.05-2.19,13.3,0,.06-.04.28-.12.65-.08.37-.18.85-.29,1.44-.11.59-.22,1.15-.31,1.66-1.44,7.92-3.06,13.75-4.86,17.47-.8,1.64-2,3.59-3.58,5.87-1.59,2.28-3.18,4.31-4.79,6.11-1.54,1.76-3.11,3.3-4.72,4.62-3.98,3.34-8.44,5.87-13.38,7.6-4.94,1.73-10.79,2.81-17.56,3.22-2.63.16-5.42.24-8.37.24h-3.37v-4.28Z"/>
      </g>
      <g>
        <path d="m174.82,265.22c0-.42-.05-3.06-.14-7.94,0-.74,0-1.62-.02-2.65-.02-1.03-.03-1.84-.05-2.43-.02-.59-.02-.97-.02-1.13l-.05-1.06-.53.05c-.1.03-.3.06-.6.1-.31.03-.51.05-.6.05-.51.06-3.96.1-10.35.1l-9.67.05v-14l.72-.19c5.61-1.35,10.55-3.29,14.82-5.82,2.34-1.41,4.3-2.71,5.87-3.9.45-.32.98-.93,1.59-1.83,2.37-3.53,3.99-6.64,4.86-9.33.77-2.41,1.44-5.73,2.02-9.96l.19-1.73v-10.92h33.1l-.05,3.75c-.03,3.27-.18,5.89-.43,7.84-1.22,10.27-4.83,19.39-10.83,27.38-1.54,2.08-3.46,4.25-5.77,6.5l-.87.82-.05,3.32c-.1,4.27-.24,9.22-.43,14.87-.22,7.12-.35,10.7-.38,10.73,0,.06-3.72.1-11.16.1h-11.12l-.05-2.74Z"/>
        <path d="m271.92,253.96c-11.07-10.42-16.78-15.81-17.13-16.17l-.53-.53-7.22,7.27-7.27,7.22-8.9-8.9c-5.94-5.93-8.9-8.92-8.9-8.95,0-.06,2.14-2.25,6.42-6.54,4.28-4.3,9.24-9.23,14.87-14.8s10.08-9.94,13.35-13.11l.48-.48,10.49,9.77,10.44,9.82v-10.63l.05-10.63h12.13v21.56h-5.92l-5.92.05,15.73,14.68c10.49,9.79,15.73,14.71,15.73,14.77,0,.03-3.53,3.58-10.59,10.66-7.06,7.07-10.62,10.61-10.68,10.61-.03,0-5.58-5.21-16.65-15.64Zm21.7-45.9v-10.78h12.13v21.56h-12.13v-10.78Z"/>
        <path d="m317.2,268.25h-1.35v-28.2l1.2-.05c.45-.03,1.46-.05,3.03-.05,4.62,0,9.17-.22,13.67-.67,9.17-.93,15.73-3.03,19.68-6.3,4.3-3.62,7.86-8.29,10.68-14,2.63-5.39,4.38-11.24,5.24-17.56.35-2.63.53-5.13.53-7.51v-.87h16.02v10.34c0,9.11-.18,15.59-.53,19.44-.87,9.75-2.8,17.66-5.8,23.72-3,6.06-7.32,10.81-12.97,14.24-5.2,3.14-11.76,5.29-19.68,6.45-3.79.55-8.55.88-14.29,1.01-4.78.06-9.93.06-15.45,0Zm-1.35-60.29v-11.89h17.66l17.71.05v23.72h-17.71l-17.66.05v-11.93Z"/>
        <path d="m391.93,229.81v-38.3h26.99v21.7l14.19,6.98c6.64,3.27,10.67,5.26,12.1,5.97,1.43.71,2.12,1.09,2.09,1.16-.03.13-1.62,4.03-4.76,11.72-3.14,7.68-4.73,11.52-4.76,11.52-.1,0-3.24-1.48-9.43-4.43l-9.38-4.43c-.03,3.98-.05,8.39-.05,13.23v13.18h-26.99v-38.3Z"/>
        <path d="m475.41,265.22c0-.42-.05-3.06-.14-7.94,0-.74,0-1.62-.02-2.65-.02-1.03-.03-1.84-.05-2.43-.02-.59-.02-.97-.02-1.13l-.05-1.06-.53.05c-.1.03-.3.06-.6.1-.31.03-.51.05-.6.05-.51.06-3.96.1-10.35.1l-9.67.05v-14l.72-.19c5.61-1.35,10.55-3.29,14.82-5.82,2.34-1.41,4.3-2.71,5.87-3.9.45-.32.98-.93,1.59-1.83,2.37-3.53,3.99-6.64,4.86-9.33.77-2.41,1.44-5.73,2.02-9.96l.19-1.73v-10.92h33.1l-.05,3.75c-.03,3.27-.18,5.89-.43,7.84-1.22,10.27-4.83,19.39-10.83,27.38-1.54,2.08-3.46,4.25-5.77,6.5l-.87.82-.05,3.32c-.1,4.27-.24,9.22-.43,14.87-.22,7.12-.35,10.7-.38,10.73,0,.06-3.72.1-11.16.1h-11.12l-.05-2.74Z"/>
        <path d="m523.92,268.25h-1.35v-28.2l1.2-.05c.45-.03,1.46-.05,3.03-.05,4.62,0,9.17-.22,13.67-.67,9.17-.93,15.73-3.03,19.68-6.3,4.3-3.62,7.86-8.29,10.68-14,2.63-5.39,4.38-11.24,5.24-17.56.35-2.63.53-5.13.53-7.51v-.87h16.02v10.34c0,9.11-.18,15.59-.53,19.44-.87,9.75-2.8,17.66-5.8,23.72-3,6.06-7.32,10.81-12.97,14.24-5.2,3.14-11.76,5.29-19.68,6.45-3.79.55-8.55.88-14.29,1.01-4.78.06-9.93.06-15.45,0Zm-1.35-60.29v-11.89h17.66l17.71.05v23.72h-17.71l-17.66.05v-11.93Z"/>
        <path d="m606.92,262.43v-6.35l1.73-.05c2.86-.1,5.47-.56,7.84-1.4,6.25-2.18,10.75-6.62,13.47-13.33,1.28-3.11,2.13-6.91,2.55-11.4.06-.54.1-1.76.1-3.63s-.03-3.02-.1-3.44l-.05-.58h-33.83v-26.75h66.55l-.05,4.81c-.13,16.01-1.33,28.49-3.61,37.44-1.03,3.98-2.2,7.31-3.51,10.01-1.12,2.31-2.39,4.33-3.8,6.06-1.22,1.54-2.68,3.02-4.38,4.43-2.34,1.89-4.4,3.34-6.16,4.33-2.95,1.7-6.26,3.01-9.94,3.92-3.67.91-8.19,1.55-13.54,1.9-3.88.29-7.75.43-11.6.43h-1.68v-6.4Z"/>
        <path d="m696.95,264.31v-5.05l-.87.87c-4.88,4.72-10.57,7.57-17.08,8.56-1.38.23-3.14.34-5.29.34h-2.17v-11.36l.58-.1c1.89-.26,3.75-.77,5.58-1.54,2.21-.87,4.23-2.04,6.06-3.51.45-.35,1.08-.95,1.9-1.78.82-.83,1.42-1.49,1.8-1.97,2.34-2.92,4.07-6.48,5.2-10.68l.24-.82h-19.68v-19.49h23.72v-6.4h19.1v6.4h6.3v19.49h-6.3v32.05h-19.1v-5Z"/>
        <path d="m728.37,262.67v-5.24l.77-.14c2.57-.54,5.08-1.56,7.55-3.03,4.78-2.89,8.85-7.44,12.22-13.67,1.25-2.31,1.88-3.59,1.88-3.85,0-.06-2.87-1.71-8.61-4.96-3.79-2.12-6.18-3.47-7.17-4.07-1-.59-1.48-.92-1.44-.99.03-.1,1.27-3.07,3.71-8.93,2.44-5.85,3.67-8.8,3.71-8.83.03-.03,2.51.9,7.43,2.79,4.92,1.89,7.77,3,8.54,3.32.06,0,.1-.03.1-.1,0-.03.03-.4.1-1.11.54-4.59.79-10.79.72-18.62l-.05-4.57h27.57l-.05,3.9c-.19,13.67-.93,23.83-2.21,30.51l-.1.38.43.14c.16.06,1.07.45,2.74,1.16,5.77,2.41,8.66,3.75,8.66,4.04,0,.06-1.91,4.11-5.73,12.12-3.82,8.02-5.74,12.05-5.77,12.08-.03,0-1.97-1.07-5.82-3.22l-5.77-3.27-.24.34c-.96,1.38-2.12,2.76-3.46,4.14-2.28,2.34-5,4.51-8.18,6.5-8.31,5.2-18.19,7.97-29.64,8.33l-1.88.05v-5.2Z"/>
        <path d="m800.88,225.47v-13.66h52.59v27.28h-52.59v-13.62Z"/>
        <path d="m860.16,268.35h-.63v-22.76h.24s.15,0,.36-.02c.21-.02.46-.03.77-.05.3-.02.58-.02.84-.02,5.26-.13,10.57-.73,15.93-1.8,5.36-1.07,10.02-2.49,14-4.26,4.14-1.83,7.59-4.17,10.35-7.03,2.21-2.28,4.14-5.04,5.77-8.28,2.63-5.32,4.25-11.79,4.86-19.39.06-.83.1-2.56.12-5.17.02-2.62,0-4.4-.07-5.37l-.05-1.06h17.66l.05,3.95c.03,2.47.03,6.18,0,11.12-.03,4.94-.06,7.84-.1,8.71-.26,4.04-.5,6.91-.72,8.61-1.92,15.65-6.96,26.69-15.11,33.11-2.28,1.76-4.76,3.24-7.46,4.43-6.51,2.79-17.71,4.52-33.59,5.2-.9.03-3.2.06-6.91.1s-5.81.03-6.33,0Zm15.25-55.82c-10.04-1.19-15.17-1.8-15.4-1.83l-.48-.05v-15.64l.34.05c.22.06,5.42.67,15.59,1.83,2.44.29,4.96.58,7.55.89,2.6.31,4.55.54,5.87.7,1.32.16,1.99.24,2.02.24l.14.05v15.54l-.34-.05c-.32,0-5.42-.58-15.3-1.73Zm-.24,21.75l-15.64-1.88v-15.54h.19c.19,0,5.42.61,15.69,1.83,10.26,1.22,15.45,1.83,15.54,1.83.06,0,.1,2.6.1,7.79v7.79h-.14c-.16,0-5.41-.61-15.73-1.83Z"/>
        <path d="m936.48,259.11v-9.09h22.38v-4.23h-22.38v-11.36h22.38v-4.23h-22.38v-19.78h40.03v57.74h-40.03v-9.05Z"/>
        <path d="m983.88,268.25h-1.35v-28.2l1.2-.05c.45-.03,1.46-.05,3.03-.05,4.62,0,9.17-.22,13.67-.67,9.17-.93,15.74-3.03,19.68-6.3,4.3-3.62,7.86-8.29,10.68-14,2.63-5.39,4.38-11.24,5.25-17.56.35-2.63.53-5.13.53-7.51v-.87h16.02v10.34c0,9.11-.18,15.59-.53,19.44-.87,9.75-2.8,17.66-5.8,23.72-3,6.06-7.32,10.81-12.97,14.24-5.2,3.14-11.76,5.29-19.68,6.45-3.79.55-8.55.88-14.29,1.01-4.78.06-9.93.06-15.45,0Zm-1.35-60.29v-11.89h17.66l17.71.05v23.72h-17.71l-17.66.05v-11.93Z"/>
      </g>
    </g>
    <g id="_レイヤー_2" data-name="レイヤー 2">
      <g class="cls-1">
        <path class="cls-3" d="m224.12,90.46c1.36-.36,2.62-1.54,2.86-2.68.25-1.13-.68-3.51-2.93-4l-.26-.05c-1.4-.2-2.46.51-3.41,1.15l-1.53.85.04.67c.04.8.08,1.56.38,2.28.04.1.11.18.17.27-1.67-1.57-3.88-2.69-6.4-3.24-4.13-.91-8.54-.19-11.53,1.86l-1.52,1.05.34.08c-.82.61-1.21,1.34-1.39,1.94-.9,2.96,1.85,7.13,4.47,9.8,2.56,2.61,4.17,3.76,5.71,4.1h0c2,.44,3.54-.59,5.67-2.01.64-.43,1.34-.9,2.16-1.4l.98-.59c2.52-1.51,4.9-2.94,5.12-5.29.15-1.58-.7-3.3-2.66-5.35.4.24.86.44,1.39.56.8.18,1.67.18,2.33,0Z"/>
        <path class="cls-3" d="m226.92,58.62c-1.98,2.27-2.65,4.04-2.07,5.4.36.85,1.22,1.47,2.42,1.73,2.77.61,7.22-.69,7.81-2.8.3-1.1-.21-2.68-4.48-4.01l-3.32-.73-.35.4Z"/>
        <path class="cls-3" d="m166.76,183.41c-1.77-.87-3.64-1.53-5.42-1.92-4.84-1.06-8.49-.01-10.02,2.87l-.4.77c-2.92,3.27-4.14,7.61-2.97,11.18,1.02,3.12,3.77,5.33,7.76,6.2h0c.39.09.8.16,1.23.22,7.86,1.15,10.21-3.87,11.48-6.56,3.02-6.45,2.47-10.74-1.65-12.76Z"/>
        <path class="cls-3" d="m154.6,207.14c-.42-1.33-2.55-1.99-3.79-2.26-.12-.03-.24-.05-.36-.07l-.02-.13-3.02-.66-.35.33c-2.24,2.13-3.16,3.69-2.88,4.91.12.52.45.96.96,1.26.87,1.18,2.44,2.2,4.06,2.62l.28.07h0c1.75.38,2.82-.11,3.41-.59,1.13-.93,1.39-2.53,1.24-3.85.6-.62.6-1.22.47-1.63Z"/>
        <path class="cls-3" d="m215.82,161.21c-3.56-.78-7,.04-8.98,2.13l-.14.15-.15.68c-1.36.83-2.39,2.02-3,3.47-1.12,2.68,1.26,5.7,3.34,6.76.29.15.66.39,1.11.68,1.33.85,3.33,2.14,5.48,2.61,1.94.42,3.66.13,5.12-.87,2.98-2.05,5.77-5.86,5.08-8.89-.73-3.2-3.82-5.83-7.86-6.72Z"/>
        <path class="cls-3" d="m84.26,105.41l-.37.9,1.13.25c-.01.72.2,1.41.64,2.03.73,1.03,2.05,1.83,3.62,2.17,2.9.64,6.25-.32,7.05-3.39.34-1.3.16-2.48-.51-3.43-.66-.94-1.76-1.6-3.18-1.91-3.09-.68-7.19.52-8.38,3.38Z"/>
        <path class="cls-3" d="m57.74,87.31h0c1.27.28,2.75.51,4.54.72,3.04.35,5.55.05,7.97-.24,1.5-.18,3.06-.37,4.75-.4,1.09-.02,2.08.07,3.04.28,1.78.39,3.18,1.14,4.67,1.93,1.42.76,2.88,1.54,4.76,2.06,3.43.95,5.43.95,6.45.11.31-.25.51-.58.59-.96.64-.25,1.02-.75,1.07-1.46.11-1.52-.8-3.24-2.45-4.6-1.3-1.08-3.06-1.58-6.46-1.72-1.61-.79-3.23-1.37-4.94-1.77-.59-.13-1.19-.22-1.81-.3l-11.84-5.14c-.98-.78-1.67-1.86-2.12-3.3-.46-1.48-2.2-2.58-3.68-2.9-1.1-.24-2.04-.05-2.59.53-.65.69-.64,1.76.04,3.18.07.14.15.29.24.44-.62,1.62-2.4,3.31-3.99,4.81-2.23,2.12-4.16,3.94-3.47,5.82.49,1.31,2.15,2.24,5.23,2.92Z"/>
        <path class="cls-3" d="m221.56,36.46c.89.74,1.98,1.27,3.14,1.53,2.2.48,4.52-.02,6.51-1.42,2.97-2.09,2.89-4.26,2.57-5.36-.6-2.09-2.89-3.85-5.84-4.5-1.78-.39-3.59-.32-5.23.2l-1.06.34.32.44c-.8.27-1.43,1.24-1.71,1.72-1.11,1.96-1.36,4.85,1.29,7.06Z"/>
        <path class="cls-3" d="m228.82,22.26c1.17.26,2.4.15,3.55-.31,2.76-1.09,2.95-2.72,2.82-3.59-.4-2.68-1.59-4.86-4.47-4.85,0,0-9.24-4.17-5.82,5.19.59,1.6,1.91,3.12,3.92,3.56Z"/>
        <path class="cls-3" d="m87.24,182.71c1.36.3,2.91.19,4.6-.32,3.06-.93,4.67-2.96,4.4-5.57-.3-2.89-2.83-5.74-5.65-6.36-1.09-.24-2.16-.13-3.07.31-3.74,1.63-4.98,5.07-4.55,7.57.38,2.23,1.98,3.87,4.26,4.37Z"/>
        <path class="cls-3" d="m76.8,178.62c.95-1.68.69-2.88.3-3.6-.5-.92-1.49-1.58-2.79-1.87-2.09-.46-4.93.14-6.31,2.17l-.3.44.81,1.11c-.29.92-.03,1.67.25,2.16.51.87,1.51,1.53,2.73,1.79,1.67.37,4.06.01,5.3-2.19Z"/>
        <path class="cls-3" d="m261.41,140.16c-.97-1.42-2.97-2.45-6.1-3.14-4.3-.94-10.34-1.16-16.18-1.37-5.67-.2-11.54-.42-15.55-1.3t0,0c-2.85-.62-4.45-1.5-4.89-2.66,2.31-2.07,5.7-2.34,8.98-2.6,1.71-.14,3.48-.28,5.06-.68,3.26-.82,5.48-2.02,6.31-3.39,2.3-1.18,5.86-3.46,5.82-6.28-.02-1.54-1.09-2.9-3.16-4.06-.51-.29-1.04-.49-1.56-.6-3.57-.78-6.36,2.47-9.05,5.62-.33.38-.65.76-.98,1.13-1.02.27-1.97.77-2.9,1.25-1.63.85-3.16,1.66-4.94,1.28l-.36-.08c-1.37-.3-1.96-.5-2.2-.61.03-.07.06-.14.09-.2.32-.75.87-2.01-.16-4.11-.77-1.58-1.39-3.89-2.87-4.53-.46-.2-1.08-.47-1.9-.85-1.38-.63-3.42-.86-5.34-1.02-1.97-.16-4.03-.4-5.2-1.06-2.72-1.53-3.47-3.86-4.27-6.32-.85-2.63-1.73-5.35-5.21-6.63-2.9-1.07-6.34-.11-9.94.92-3.36.96-6.82,1.97-9.6,1.01-3.11-1.06-4.97-2.62-5.39-4.51-.48-2.19,1-4.77,3.96-6.89,2.42-1.74,5.18-2.7,8.43-2.93,7.82-.55,12.45-3.4,12.37-7.63-.01-.67-.04-1.36-.06-2.03-.08-2.31-.16-4.49.23-6.11,1.71-7.18,4.99-11.2,10.07-15.73,1-.89,2.12-1.79,3.29-2.73,4.1-3.3,8.75-7.03,9.79-11.7.59-2.65,0-5.36-1.64-7.62-2.62-3.59-7.46-5.16-12.07-3.8-4.33,1.28-4.85,3.33-5.41,5.51-.23.9-.47,1.84-.99,2.83-.82,1.56-1.87,3.32-2.98,5.18-.99,1.66-2.01,3.37-2.91,5-1.59,2.89-2.35,6.16-3.09,9.33-.66,2.83-1.28,5.49-2.44,7.88-1.79,3.71-4.73,8.84-9.53,10.6-2.35.86-4.24,1.12-5.77.78-2.06-.45-3.46-1.99-5.08-3.77l-.7-.75c-.24-.37-.48-.73-.73-1.1-1.13-1.69-2.2-3.28-2.67-5.03.27-1.66,1.26-3.79,2.3-6.05,1.91-4.14,3.89-8.42,2.18-11.3-.83-1.4-2.39-2.29-4.76-2.68-5.21-.85-7.96,3.98-10.62,8.65l-.24.42c-2.02,3.54-7.02,5.42-8.64,3.79.13-.38.26-.76.38-1.13.79-2.31,1.54-4.5,1.48-6.24-.19-5.26-5.82-11.13-10.12-12.07-1.39-.31-2.64-.12-3.62.54-1.43.96-2.18,2.88-2.24,5.68-.03,1.32,1.18,3.2,2.57,5.37,1.02,1.6,2.09,3.26,2.34,4.31.65,2.7.6,7.65-.48,10.79-2.77.41-5.72,1.18-8.52,1.96-.81.23-1.6.47-2.38.7-3.32,1-6.19,1.87-8.95,1.27-1.92-.42-3.71-1.56-5.47-3.48-2.3-2.5-2.93-4.92-3.6-7.47-.84-3.2-1.7-6.5-5.91-9.83-4.57-3.61-8.31-5.65-11.78-6.41-3.89-.85-7.36-.03-10.31,2.45-2.4,2.01-3.65,4.67-3.52,7.47.14,2.9,1.76,5.72,4.56,7.95,2.59,2.05,6.26,3.15,9.81,4.2,3.16.94,6.42,1.91,8.79,3.53,2.96,2.02,8.1,9.89,8.87,13.58.65,3.1-.74,5.21-2.22,7.43-1.55,2.35-3.17,4.77-2.64,8.45.26,1.83,1.06,3.18,1.84,4.48.83,1.4,1.63,2.72,1.62,4.6,0,1.75-2.25,6.64-3.3,8.21-6.81,10.09-21.06,7.24-33.63,4.73-1.92-.38-3.79-.76-5.57-1.07-9.61-1.69-16.59,2.62-17.54,7.59-.6,3.16,1.31,7.09,8.5,8.67,1.17.26,2.46.44,3.83.55,7.15.57,14.41-.98,21.42-2.48,5.14-1.1,10.45-2.23,15.56-2.47,2.15-.1,4.82.14,7.14.65,3.71.81,6.19,2.19,6.8,3.77.49,1.25-.12,2.75-1.82,4.47-1.94,1.96-3.23,1.88-4.39,1.63-.4-.09-.8-.21-1.2-.33-.46-.14-.93-.27-1.42-.38-.93-.21-2.37-.4-4.07.23-2.41.9-3.27,2.46-3.79,3.88-1.62,4.34-1.39,4.68-1.21,4.96l.05.08c-.26,2.46.85,5.23,4.74,6.42,1.39.43,2.88.79,4.32,1.14,2.19.53,4.26,1.04,5.23,1.6,5.38,3.13,7.27,7.96,5.17,13.25-2.47,6.24-8.9,11.59-15.12,16.77-3.46,2.89-6.73,5.61-9.26,8.42l-1.43,1.61c-3.15,3.54-5.63,6.34-9.94,9.34-.59.41-1.24.84-1.92,1.29-3.9,2.57-8.76,5.76-9.21,9.93-.52,4.79,3.86,9.89,9.57,11.14,1.11.24,2.22.33,3.29.25,6.1-.45,11.74-7.32,13.88-10.89,1.74-2.91,2.61-6.16,3.45-9.29,1.01-3.77,2.05-7.66,4.61-10.93,4.52-5.78,8.31-10.85,12.28-16.45,6.28-8.86,10.6-11.85,13.13-12.8,2.89-1.08,4.31-1.13,4.99-.98,1.03.22,1.32,1.18,1.2,3.95-.12,2.86,1.15,4.6,3.79,5.18l.2.04c2.51.49,7.4.36,10.45-1.45,1.39-.82,2.22-1.89,2.45-3.18.42-2.25-.24-4.9-1.9-7.65-2.91-4.81-5.09-9.14-2.26-13.48,3.78-5.8,13.35-9.1,21.32-7.35,3.97.87,7.1,2.91,9.07,5.91,2.98,4.55,3.06,9.97.2,14.15-.64.94-2.32,2-4.08,3.11-3.53,2.23-7.94,5.01-5.7,8.57.7,1.11,1.53,1.76,2.54,1.98,1.08.24,2.11-.08,3.02-.36.85-.26,1.61-.51,2.22-.25.97.42,2.19,1.69,3.37,2.91,1.73,1.8,3.4,3.48,5.08,3.62,1.78.13,3.07-.18,3.95-.94,1.5-1.28,1.38-3.53,1.27-5.7-.05-.96.19-1.7.68-2.13.53-.47,1.29-.54,1.84-.51,1.38.07,2.9,1.16,4.4,2.2,1.97,1.37,3.93,2.5,5.41,1.95.64-.24,1.09-.71,1.27-1.33.28-.98-.12-2.23-1.15-3.53-1.41-1.79-2.47-3.49-1.17-6.29.68-1.45,2.91-3.22,5.97-4.73,1.63-.81,3.04-2.23,4.52-3.73,2.5-2.53,5.08-5.15,8.9-4.95,12.19.61,12.84.33,13.07-.63.26-1.12-1.16-1.84-5.73-3.99-2.06-.97-4.3-3.98-4.65-7.44.63-.41,1.32-.88,2.1-1.42,2.54-1.74,6.93-1.85,13.81-.33,3.51.77,7.21,1.85,10.8,2.9,3.34.98,6.49,1.9,9.28,2.51t0,0c4.31.94,9.38,1.57,10.45-2.01.4-1.34.25-2.55-.45-3.57Z"/>
      </g>
    </g>
  </g>
</svg>