<?xml version="1.0" encoding="UTF-8"?>
<svg xmlns="http://www.w3.org/2000/svg" version="1.1" viewBox="0 0 1085.7 257">
  <!-- Generator: Adobe Illustrator 29.6.1, SVG Export Plug-In . SVG Version: 2.1.1 Build 9)  -->
  <defs>
    <style>
      .st0 {
        fill: #1362e2;
      }

      .st1 {
        fill: #dd0707;
      }

      .st2 {
        isolation: isolate;
      }

      .st3 {
        fill: #0a0916;
      }

      .st4 {
        fill: #121cd8;
      }

      .st5 {
        fill: #089900;
      }

      .st6 {
        mix-blend-mode: multiply;
        opacity: .8;
      }
    </style>
  </defs>
  <g id="_レイヤー_1" data-name="レイヤー_1">
    <g class="st2">
      <g id="_レイヤー_11" data-name="_レイヤー_1">
        <g>
          <path class="st3" d="M24,105.3v-6.3h1.3c5.5-.3,10-1.3,13.6-3.1,7.1-3.7,11-10.7,11.6-21.2,0-.7,0-1.7,0-3.1s0-2.3,0-2.8v-.6h-26.5v-31.8h58.7v1.5c0,.3.1.8.2,1.6,0,.8,0,1.3.1,1.6.2,2.2.3,4.9.3,8,.2,12.7-1.5,23.5-5.1,32.3-.4.9-.5,1.4-.5,1.5,0,1,.5,2.5,1.2,4.3,1.3,3.5,3.5,6.2,6.4,8.3,2.9,2,6.4,3.1,10.4,3.4h.9v12.6h-1.5c-1.7,0-3.6-.2-5.7-.5-9.4-1.3-17-5.2-22.8-11.6l-.5-.5-.8.6c-8.2,6.7-19.2,10.6-33.1,11.7-2.5.2-4.5.3-6,.3h-2.1v-6.3h0Z"/>
          <path class="st3" d="M110.8,105.6v-6.4h1.7c3-.1,5.6-.6,7.9-1.4,3.1-1.1,5.8-2.7,8.1-5,2.3-2.3,4.1-5.1,5.4-8.4,1.3-3.2,2.1-7,2.6-11.4,0-.5,0-1.8,0-3.7s0-3,0-3.5v-.5h-33.9v-26.8h66.7v4.8c-.2,15.9-1.4,28.5-3.7,37.5-1,4-2.2,7.3-3.5,10-1.2,2.4-2.5,4.4-3.8,6.1-1.2,1.5-2.7,3-4.4,4.4-1.9,1.6-3.9,3-6.2,4.3-3,1.7-6.3,3-10,3.9-3.7.9-8.2,1.5-13.5,1.9-3.9.3-7.7.4-11.6.4h-1.7v-6.4h0ZM152,34.4c-.7,0-1.1-.2-1.4-.2-2.1-.3-4.1-1.2-5.8-2.9-2-2-3.2-4.3-3.6-6.9,0-.4,0-.8-.2-1.3,0-.4,0-1,0-1.8s0-1.3,0-1.4c0,0,0-.3.1-.8.2-1.3.8-2.7,1.9-4.2,1.1-1.5,2.5-2.7,4.1-3.7.9-.5,1.9-1,3-1.4.7-.2,1.9-.4,3.4-.5,1.5,0,2.8,0,3.8,0,1.9.3,3.7,1.3,5.4,3.2,1.2,1.3,2.1,2.8,2.7,4.5.3,1,.5,2.2.6,3.7,0,1,.1,1.5.2,1.4v.5c0,0,0,.4,0,.8,0,.4,0,.7,0,.9,0,1.2-.2,2.1-.5,2.9-.6,1.8-1.7,3.3-3.2,4.6-1.5,1.3-3.1,2.1-4.9,2.3-2.3.3-4.2.4-5.7.1h0ZM154.8,25.6c1.3-.3,2.2-1,2.6-2.3,0-.4.1-.9,0-1.4,0-.9-.2-1.7-.6-2.3-.7-1.2-1.9-1.7-3.6-1.5-.8,0-1.6.5-2.3,1.2-.6.6-1,1.2-1.1,1.8-.2,1.1,0,2.1.5,2.9.5.7,1,1.2,1.7,1.4.8.3,1.7.3,2.7.1h0Z"/>
          <path class="st3" d="M183,105.9v-5.1h1c.5,0,1.2,0,2.1,0,5.6-.4,10.5-1.7,14.6-3.9,4.1-2.2,7.1-5.1,8.9-8.8,1.3-2.4,2-5.1,2.2-8v-.6s-36.4,0-36.4,0v-24.3h64.7v2.1c0,5.7,0,10.3-.2,13.9-.4,10.7-1.4,18.1-3,22.1-.7,1.7-1.7,3.4-2.9,5.1-1.4,1.9-2.4,3.2-3.1,3.8-4.7,4.7-14.5,7.5-29.5,8.5-2.6.2-6.5.3-11.5.3h-6.9s0-5.1,0-5.1h0ZM184.9,40.6v-10.2h41.9v20.5h-41.9v-10.2h0Z"/>
          <path class="st3" d="M246.2,108.9c0-.3.2-.6.3-.9,0-.1.1-.3.2-.6,0-.3.2-.6.4-.9.1-.4.3-.6.4-.8,4.2-10.4,7.1-20.2,8.7-29.4,1.6-9.2,2.5-20.7,2.7-34.4v-4.7h27.7v4.3c0,7.2-.2,13.1-.4,17.8-.5,10-1.6,18.7-3.2,26-1.7,7.3-4.3,14.7-7.8,22.1l-.7,1.5h-28.1,0ZM307,108.1c-3.6-6.1-6.2-12.1-8-18.2-1.7-6.1-2.8-13.3-3.3-21.6-.3-5-.4-10.2-.4-15.4v-2.6h27.6v.2c0,2.2,0,5.6.2,10.2.3,8,1.1,14.9,2.4,20.9,1.3,6,3.2,12,5.9,18.2.9,2,1.9,4.3,3.1,6.7l1.1,2.4h-28.1l-.5-.9h0ZM302.3,35.6v-10.8h12.1v21.6h-12.1s0-10.8,0-10.8ZM317.9,35.6v-10.8h12.1v21.6h-12.1s0-10.8,0-10.8Z"/>
          <path class="st3" d="M343.7,108.4c-.3-.4-.6-.9-1-1.5-.4-.5-.6-.9-.8-1.2l-.3-.4s.5-.5,1.5-1.5c1.3-1.3,2.5-2.6,3.6-4,3.9-5.1,6.3-11.6,7.2-19.6.4-3.3.5-8.1.5-14.6v-25.2h22.3v14.2c0,8.6,0,13.9-.2,16-.3,6.3-.7,11.1-1.3,14.6-.5,2.9-1.1,5.2-1.8,7-.7,1.8-1.6,3.4-2.9,5-1.1,1.3-2.2,2.5-3.5,3.7-4.6,4-11.1,7.4-19.3,10.2-1.1.4-1.6.5-1.7.5s-.9-1-2.2-3.1h0ZM383.4,73.8v-33.5h21.9v42.3h.7c1.6,0,3.1,0,4.3-.3,2.7-.4,4.7-1.2,6-2.5.5-.6,1-1.3,1.5-2.2.9-1.9,1.4-4.1,1.6-6.8v-.8s.8,0,.8,0c.3,0,1.5,0,3.7,0h2.9v3.9c0,4.3-.1,7.7-.4,10.3-.8,6.9-2.9,12.1-6.4,15.6-4,4.1-10.5,6.5-19.5,7.2-1.9.1-5.7.2-11.4.2h-5.7v-33.5Z"/>
          <path class="st3" d="M432.8,68.6v-13.7h52.6v27.3h-52.6v-13.6Z"/>
          <path class="st3" d="M492.8,111.4h-1.3v-28.2h1.2c.4,0,1.5,0,3,0,4.6,0,9.2-.2,13.7-.7,9.2-.9,15.7-3,19.7-6.3,4.3-3.6,7.9-8.3,10.7-14,2.6-5.4,4.4-11.2,5.2-17.6.4-2.6.5-5.1.5-7.5v-.9h16v10.3c0,9.1-.2,15.6-.5,19.4-.9,9.8-2.8,17.7-5.8,23.7-3,6.1-7.3,10.8-13,14.2-5.2,3.1-11.8,5.3-19.7,6.4-3.8.5-8.5.9-14.3,1-4.8,0-9.9,0-15.4,0h0ZM491.5,51.1v-11.9h35.4v23.8h-35.4s0-11.9,0-11.9Z"/>
        </g>
        <g>
          <path class="st3" d="M132.3,252.6c0-.4,0-3.1-.1-7.9,0-.7,0-1.6,0-2.6,0-1,0-1.8,0-2.4,0-.6,0-1,0-1.1v-1.1s-.6,0-.6,0c0,0-.3,0-.6,0-.3,0-.5,0-.6,0-.5,0-4,0-10.3,0h-9.7s0-14,0-14l.7-.2c5.6-1.3,10.6-3.3,14.8-5.8,2.3-1.4,4.3-2.7,5.9-3.9.4-.3,1-.9,1.6-1.8,2.4-3.5,4-6.6,4.9-9.3.8-2.4,1.4-5.7,2-10l.2-1.7v-10.9h33.1v3.8c0,3.3-.2,5.9-.5,7.8-1.2,10.3-4.8,19.4-10.8,27.4-1.5,2.1-3.5,4.2-5.8,6.5l-.9.8v3.3c-.1,4.3-.3,9.2-.5,14.9-.2,7.1-.4,10.7-.4,10.7,0,0-3.7,0-11.2,0h-11.1v-2.7s0,0,0,0Z"/>
          <path class="st3" d="M229.4,241.4c-11.1-10.4-16.8-15.8-17.1-16.2l-.5-.5-7.2,7.3-7.3,7.2-8.9-8.9c-5.9-5.9-8.9-8.9-8.9-8.9,0,0,2.1-2.2,6.4-6.5,4.3-4.3,9.2-9.2,14.9-14.8s10.1-9.9,13.4-13.1l.5-.5,10.5,9.8,10.4,9.8v-21.3h12.2v21.6h-11.8s15.7,14.7,15.7,14.7c10.5,9.8,15.7,14.7,15.7,14.8s-3.5,3.6-10.6,10.7c-7.1,7.1-10.6,10.6-10.7,10.6s-5.6-5.2-16.6-15.6h0ZM251.1,195.5v-10.8h12.1v21.6h-12.1v-10.8h0Z"/>
          <path class="st3" d="M274.6,255.7h-1.3v-28.2h1.2c.4,0,1.5,0,3,0,4.6,0,9.2-.2,13.7-.7,9.2-.9,15.7-3,19.7-6.3,4.3-3.6,7.9-8.3,10.7-14,2.6-5.4,4.4-11.2,5.2-17.6.4-2.6.5-5.1.5-7.5v-.9h16v10.3c0,9.1-.2,15.6-.5,19.4-.9,9.8-2.8,17.7-5.8,23.7-3,6.1-7.3,10.8-13,14.2-5.2,3.1-11.8,5.3-19.7,6.4-3.8.5-8.5.9-14.3,1-4.8,0-9.9,0-15.4,0h0ZM273.3,195.4v-11.9h35.4v23.8h-35.4s0-11.9,0-11.9h0Z"/>
          <path class="st3" d="M349.4,217.2v-38.3h27v21.7l14.2,7c6.6,3.3,10.7,5.3,12.1,6,1.4.7,2.1,1.1,2.1,1.2,0,.1-1.6,4-4.8,11.7-3.1,7.7-4.7,11.5-4.8,11.5,0,0-3.2-1.5-9.4-4.4l-9.4-4.4c0,4,0,8.4,0,13.2v13.2h-27v-38.3h0Z"/>
          <path class="st3" d="M432.8,252.6c0-.4,0-3.1-.1-7.9,0-.7,0-1.6,0-2.6,0-1,0-1.8,0-2.4,0-.6,0-1,0-1.1v-1.1s-.6,0-.6,0c0,0-.3,0-.6,0-.3,0-.5,0-.6,0-.5,0-4,0-10.3,0h-9.7s0-14,0-14l.7-.2c5.6-1.3,10.6-3.3,14.8-5.8,2.3-1.4,4.3-2.7,5.9-3.9.4-.3,1-.9,1.6-1.8,2.4-3.5,4-6.6,4.9-9.3.8-2.4,1.4-5.7,2-10l.2-1.7v-10.9h33.1v3.8c0,3.3-.2,5.9-.5,7.8-1.2,10.3-4.8,19.4-10.8,27.4-1.5,2.1-3.5,4.2-5.8,6.5l-.9.8v3.3c-.1,4.3-.3,9.2-.5,14.9-.2,7.1-.4,10.7-.4,10.7,0,0-3.7,0-11.2,0h-11.1v-2.7s0,0,0,0Z"/>
          <path class="st3" d="M481.4,255.7h-1.3v-28.2h1.2c.4,0,1.5,0,3,0,4.6,0,9.2-.2,13.7-.7,9.2-.9,15.7-3,19.7-6.3,4.3-3.6,7.9-8.3,10.7-14,2.6-5.4,4.4-11.2,5.2-17.6.4-2.6.5-5.1.5-7.5v-.9h16v10.3c0,9.1-.2,15.6-.5,19.4-.9,9.8-2.8,17.7-5.8,23.7-3,6.1-7.3,10.8-13,14.2-5.2,3.1-11.8,5.3-19.7,6.4-3.8.5-8.5.9-14.3,1-4.8,0-9.9,0-15.4,0h0ZM480,195.4v-11.9h35.4v23.8h-35.4s0-11.9,0-11.9h0Z"/>
          <path class="st3" d="M564.4,249.8v-6.4h1.7c2.9-.1,5.5-.6,7.8-1.4,6.3-2.2,10.7-6.6,13.5-13.3,1.3-3.1,2.1-6.9,2.6-11.4,0-.5,0-1.8,0-3.6s0-3,0-3.4v-.6h-33.9v-26.8h66.5v4.8c-.2,16-1.4,28.5-3.7,37.4-1,4-2.2,7.3-3.5,10-1.1,2.3-2.4,4.3-3.8,6.1-1.2,1.5-2.7,3-4.4,4.4-2.3,1.9-4.4,3.3-6.2,4.3-3,1.7-6.3,3-9.9,3.9-3.7.9-8.2,1.5-13.5,1.9-3.9.3-7.7.4-11.6.4h-1.7v-6.4h0Z"/>
          <path class="st3" d="M654.4,251.7v-5.1l-.9.9c-4.9,4.7-10.6,7.6-17.1,8.6-1.4.2-3.1.3-5.3.3h-2.2v-11.4h.6c1.9-.4,3.8-.9,5.6-1.6,2.2-.9,4.2-2,6.1-3.5.4-.4,1.1-.9,1.9-1.8.8-.8,1.4-1.5,1.8-2,2.3-2.9,4.1-6.5,5.2-10.7l.2-.8h-19.7v-19.5h23.7v-6.4h19.1v6.4h6.3v19.5h-6.3v32h-19.1v-5Z"/>
          <path class="st3" d="M685.8,250.1v-5.2h.8c2.6-.7,5.1-1.7,7.6-3.2,4.8-2.9,8.9-7.4,12.2-13.7,1.3-2.3,1.9-3.6,1.9-3.8s-2.9-1.7-8.6-5c-3.8-2.1-6.2-3.5-7.2-4.1-1-.6-1.5-.9-1.4-1,0,0,1.3-3.1,3.7-8.9,2.4-5.9,3.7-8.8,3.7-8.8,0,0,2.5.9,7.4,2.8,4.9,1.9,7.8,3,8.5,3.3,0,0,0,0,0,0s0-.4,0-1.1c.5-4.6.8-10.8.7-18.6v-4.6s27.5,0,27.5,0v3.9c-.2,13.7-1,23.8-2.3,30.5v.4c0,0,.3.1.3.1.2,0,1.1.5,2.7,1.2,5.8,2.4,8.7,3.8,8.7,4s-1.9,4.1-5.7,12.1c-3.8,8-5.7,12-5.8,12.1,0,0-2-1.1-5.8-3.2l-5.8-3.3-.2.3c-1,1.4-2.1,2.8-3.5,4.1-2.3,2.3-5,4.5-8.2,6.5-8.3,5.2-18.2,8-29.6,8.3h-1.9s0-5.1,0-5.1h0Z"/>
          <path class="st3" d="M758.3,212.9v-13.7h52.6v27.3h-52.6v-13.6h0Z"/>
          <path class="st3" d="M817.6,255.8h-.6v-22.8h.2s.2,0,.4,0c.2,0,.5,0,.8,0,.3,0,.6,0,.8,0,5.3-.1,10.6-.7,15.9-1.8,5.4-1.1,10-2.5,14-4.3,4.1-1.8,7.6-4.2,10.3-7,2.2-2.3,4.1-5,5.8-8.3,2.6-5.3,4.3-11.8,4.9-19.4,0-.8.1-2.6.1-5.2,0-2.6,0-4.4,0-5.4v-1.1s17.6,0,17.6,0v3.9c0,2.5,0,6.2,0,11.1,0,4.9,0,7.8,0,8.7-.3,4-.5,6.9-.7,8.6-1.9,15.7-7,26.7-15.1,33.1-2.3,1.8-4.8,3.2-7.5,4.4-6.5,2.8-17.7,4.5-33.6,5.2-.9,0-3.2,0-6.9,0s-5.8,0-6.3,0h0ZM832.9,199.9c-10-1.2-15.2-1.8-15.4-1.8h-.5v-15.7h.3c.2.1,5.4.7,15.6,1.9,2.4.3,5,.6,7.6.9,2.6.3,4.6.5,5.9.7,1.3.2,2,.2,2,.2h.1v15.6h-.3c-.3,0-5.4-.6-15.3-1.8h0ZM832.6,221.7l-15.6-1.9v-15.5h.2c.2,0,5.4.6,15.7,1.8,10.3,1.2,15.4,1.8,15.5,1.8s0,2.6,0,7.8v7.8h-.1c-.2,0-5.4-.6-15.7-1.8h0Z"/>
          <path class="st3" d="M893.9,246.5v-9.1h22.4v-4.2h-22.4v-11.4h22.4v-4.2h-22.4v-19.8h40v57.7h-40v-9h0Z"/>
          <path class="st3" d="M941.3,255.7h-1.3v-28.2h1.2c.4,0,1.5,0,3,0,4.6,0,9.2-.2,13.7-.7,9.2-.9,15.7-3,19.7-6.3,4.3-3.6,7.9-8.3,10.7-14,2.6-5.4,4.4-11.2,5.2-17.6.4-2.6.5-5.1.5-7.5v-.9h16v10.3c0,9.1-.2,15.6-.5,19.4-.9,9.8-2.8,17.7-5.8,23.7-3,6.1-7.3,10.8-13,14.2-5.2,3.1-11.8,5.3-19.7,6.4-3.8.5-8.5.9-14.3,1-4.8,0-9.9,0-15.4,0h0ZM940,195.4v-11.9h35.4v23.8h-35.4s0-11.9,0-11.9h0Z"/>
        </g>
      </g>
      <g id="_レイヤー_2">
        <g class="st6">
          <path class="st0" d="M181.6,77.9c1.4-.4,2.6-1.5,2.9-2.7.2-1.1-.7-3.5-2.9-4h-.3c-1.4-.2-2.5.5-3.4,1.1l-1.5.8v.7c0,.8.1,1.6.4,2.3,0,0,.1.2.2.3-1.7-1.6-3.9-2.7-6.4-3.2-4.1-.9-8.5-.2-11.5,1.9l-1.5,1.1h.3c-.8.7-1.2,1.4-1.4,2-.9,3,1.8,7.1,4.5,9.8,2.6,2.6,4.2,3.8,5.7,4.1h0c2,.4,3.5-.6,5.7-2,.6-.4,1.3-.9,2.2-1.4l1-.6c2.5-1.5,4.9-2.9,5.1-5.3.1-1.6-.7-3.3-2.7-5.4.4.2.9.4,1.4.6.8.2,1.7.2,2.3,0h0Z"/>
          <path class="st0" d="M184.4,46c-2,2.3-2.7,4-2.1,5.4.4.9,1.2,1.5,2.4,1.7,2.8.6,7.2-.7,7.8-2.8.3-1.1-.2-2.7-4.5-4l-3.3-.7-.3.4Z"/>
          <path class="st0" d="M124.2,170.8c-1.8-.9-3.6-1.5-5.4-1.9-4.8-1.1-8.5,0-10,2.9l-.4.8c-2.9,3.3-4.1,7.6-3,11.2,1,3.1,3.8,5.3,7.8,6.2h0c.4,0,.8.2,1.2.2,7.9,1.2,10.2-3.9,11.5-6.6,3-6.4,2.5-10.7-1.7-12.8h0Z"/>
          <path class="st0" d="M112,194.6c-.4-1.3-2.6-2-3.8-2.3-.1,0-.2,0-.4,0h0c0-.1-3-.8-3-.8l-.4.3c-2.2,2.1-3.2,3.7-2.9,4.9.1.5.5,1,1,1.3.9,1.2,2.4,2.2,4.1,2.6h.3c0,0,0,0,0,0,1.8.4,2.8-.1,3.4-.6,1.1-.9,1.4-2.5,1.2-3.8.6-.6.6-1.2.5-1.6h0Z"/>
          <path class="st0" d="M173.3,148.6c-3.6-.8-7,0-9,2.1v.2c-.1,0-.3.7-.3.7-1.4.8-2.4,2-3,3.5-1.1,2.7,1.3,5.7,3.3,6.8.3.1.7.4,1.1.7,1.3.9,3.3,2.1,5.5,2.6,1.9.4,3.7.1,5.1-.9,3-2,5.8-5.9,5.1-8.9-.7-3.2-3.8-5.8-7.9-6.7h0Z"/>
          <path class="st0" d="M41.7,92.8l-.4.9,1.1.2c0,.7.2,1.4.6,2,.7,1,2,1.8,3.6,2.2,2.9.6,6.3-.3,7-3.4.3-1.3.2-2.5-.5-3.4-.7-.9-1.8-1.6-3.2-1.9-3.1-.7-7.2.5-8.4,3.4h0Z"/>
          <path class="st0" d="M15.2,74.7h0c1.3.3,2.7.5,4.5.7,3,.4,5.6,0,8-.2,1.5-.2,3.1-.4,4.7-.4,1.1,0,2.1,0,3,.3,1.8.4,3.2,1.1,4.7,1.9,1.4.8,2.9,1.5,4.8,2.1,3.4.9,5.4.9,6.5.1.3-.3.5-.6.6-1,.6-.2,1-.8,1.1-1.5.1-1.5-.8-3.2-2.5-4.6-1.3-1.1-3.1-1.6-6.5-1.7-1.6-.8-3.2-1.4-4.9-1.8-.6-.1-1.2-.2-1.8-.3l-11.8-5.1c-1-.8-1.7-1.9-2.1-3.3-.5-1.5-2.2-2.6-3.7-2.9-1.1-.2-2,0-2.6.5-.7.7-.6,1.8,0,3.2,0,.1.2.3.2.4-.6,1.6-2.4,3.3-4,4.8-2.2,2.1-4.2,3.9-3.5,5.8.5,1.3,2.2,2.2,5.2,2.9h0Z"/>
          <path class="st0" d="M179,23.9c.9.7,2,1.3,3.1,1.5,2.2.5,4.5,0,6.5-1.4,3-2.1,2.9-4.3,2.6-5.4-.6-2.1-2.9-3.9-5.8-4.5-1.8-.4-3.6-.3-5.2.2l-1.1.3.3.4c-.8.3-1.4,1.2-1.7,1.7-1.1,2-1.4,4.8,1.3,7.1h0Z"/>
          <path class="st0" d="M186.3,9.7c1.2.3,2.4.2,3.6-.3,2.8-1.1,2.9-2.7,2.8-3.6-.4-2.7-1.6-4.9-4.5-4.8,0,0-9.2-4.2-5.8,5.2.6,1.6,1.9,3.1,3.9,3.6h0Z"/>
          <path class="st0" d="M44.7,170.1c1.4.3,2.9.2,4.6-.3,3.1-.9,4.7-3,4.4-5.6-.3-2.9-2.8-5.7-5.6-6.4-1.1-.2-2.2-.1-3.1.3-3.7,1.6-5,5.1-4.5,7.6.4,2.2,2,3.9,4.3,4.4h0Z"/>
          <path class="st0" d="M34.2,166c1-1.7.7-2.9.3-3.6-.5-.9-1.5-1.6-2.8-1.9-2.1-.5-4.9.1-6.3,2.2l-.3.4.8,1.1c-.3.9,0,1.7.3,2.2.5.9,1.5,1.5,2.7,1.8,1.7.4,4.1,0,5.3-2.2h0Z"/>
          <path class="st0" d="M218.8,127.6c-1-1.4-3-2.5-6.1-3.1-4.3-.9-10.3-1.2-16.2-1.4-5.7-.2-11.5-.4-15.6-1.3,0,0,0,0,0,0-2.8-.6-4.5-1.5-4.9-2.7,2.3-2.1,5.7-2.3,9-2.6,1.7-.1,3.5-.3,5.1-.7,3.3-.8,5.5-2,6.3-3.4,2.3-1.2,5.9-3.5,5.8-6.3,0-1.5-1.1-2.9-3.2-4.1-.5-.3-1-.5-1.6-.6-3.6-.8-6.4,2.5-9.1,5.6-.3.4-.7.8-1,1.1-1,.3-2,.8-2.9,1.3-1.6.9-3.2,1.7-4.9,1.3h-.4c-1.4-.4-2-.6-2.2-.7,0,0,0-.1,0-.2.3-.8.9-2-.2-4.1-.8-1.6-1.4-3.9-2.9-4.5-.5-.2-1.1-.5-1.9-.8-1.4-.6-3.4-.9-5.3-1-2-.2-4-.4-5.2-1.1-2.7-1.5-3.5-3.9-4.3-6.3-.9-2.6-1.7-5.4-5.2-6.6-2.9-1.1-6.3-.1-9.9.9-3.4,1-6.8,2-9.6,1-3.1-1.1-5-2.6-5.4-4.5-.5-2.2,1-4.8,4-6.9,2.4-1.7,5.2-2.7,8.4-2.9,7.8-.5,12.4-3.4,12.4-7.6,0-.7,0-1.4,0-2,0-2.3-.2-4.5.2-6.1,1.7-7.2,5-11.2,10.1-15.7,1-.9,2.1-1.8,3.3-2.7,4.1-3.3,8.7-7,9.8-11.7.6-2.7,0-5.4-1.6-7.6-2.6-3.6-7.5-5.2-12.1-3.8-4.3,1.3-4.9,3.3-5.4,5.5-.2.9-.5,1.8-1,2.8-.8,1.6-1.9,3.3-3,5.2-1,1.7-2,3.4-2.9,5-1.6,2.9-2.3,6.2-3.1,9.3-.7,2.8-1.3,5.5-2.4,7.9-1.8,3.7-4.7,8.8-9.5,10.6-2.4.9-4.2,1.1-5.8.8-2.1-.5-3.5-2-5.1-3.8l-.7-.7c-.2-.4-.5-.7-.7-1.1-1.1-1.7-2.2-3.3-2.7-5,.3-1.7,1.3-3.8,2.3-6,1.9-4.1,3.9-8.4,2.2-11.3-.8-1.4-2.4-2.3-4.8-2.7-5.2-.8-8,4-10.6,8.6l-.2.4c-2,3.5-7,5.4-8.6,3.8.1-.4.3-.8.4-1.1.8-2.3,1.5-4.5,1.5-6.2-.2-5.3-5.8-11.1-10.1-12.1-1.4-.3-2.6-.1-3.6.5-1.4,1-2.2,2.9-2.2,5.7,0,1.3,1.2,3.2,2.6,5.4,1,1.6,2.1,3.3,2.3,4.3.7,2.7.6,7.7-.5,10.8-2.8.4-5.7,1.2-8.5,2-.8.2-1.6.5-2.4.7-3.3,1-6.2,1.9-8.9,1.3-1.9-.4-3.7-1.6-5.5-3.5-2.3-2.5-2.9-4.9-3.6-7.5-.8-3.2-1.7-6.5-5.9-9.8-4.6-3.6-8.3-5.7-11.8-6.4-3.9-.9-7.4,0-10.3,2.4-2.4,2-3.7,4.7-3.5,7.5.1,2.9,1.8,5.7,4.6,7.9,2.6,2.1,6.3,3.1,9.8,4.2,3.2.9,6.4,1.9,8.8,3.5,3,2,8.1,9.9,8.9,13.6.7,3.1-.7,5.2-2.2,7.4-1.6,2.3-3.2,4.8-2.6,8.5.3,1.8,1.1,3.2,1.8,4.5.8,1.4,1.6,2.7,1.6,4.6,0,1.7-2.2,6.6-3.3,8.2-6.8,10.1-21.1,7.2-33.6,4.7-1.9-.4-3.8-.8-5.6-1.1-9.6-1.7-16.6,2.6-17.5,7.6-.6,3.2,1.3,7.1,8.5,8.7,1.2.3,2.5.4,3.8.6,7.2.6,14.4-1,21.4-2.5,5.1-1.1,10.5-2.2,15.6-2.5,2.2-.1,4.8.1,7.1.6,3.7.8,6.2,2.2,6.8,3.8.5,1.3-.1,2.8-1.8,4.5-1.9,2-3.2,1.9-4.4,1.6-.4,0-.8-.2-1.2-.3-.5-.1-.9-.3-1.4-.4-.9-.2-2.4-.4-4.1.2-2.4.9-3.3,2.5-3.8,3.9-1.6,4.3-1.4,4.7-1.2,5h0c-.3,2.5.9,5.3,4.7,6.5,1.4.4,2.9.8,4.3,1.1,2.2.5,4.3,1,5.2,1.6,5.4,3.1,7.3,8,5.2,13.3-2.5,6.2-8.9,11.6-15.1,16.8-3.5,2.9-6.7,5.6-9.3,8.4l-1.4,1.6c-3.1,3.5-5.6,6.3-9.9,9.3-.6.4-1.2.8-1.9,1.3-3.9,2.6-8.8,5.8-9.2,9.9-.5,4.8,3.9,9.9,9.6,11.1,1.1.2,2.2.3,3.3.2,6.1-.4,11.7-7.3,13.9-10.9,1.7-2.9,2.6-6.2,3.4-9.3,1-3.8,2.1-7.7,4.6-10.9,4.5-5.8,8.3-10.8,12.3-16.4,6.3-8.9,10.6-11.8,13.1-12.8,2.9-1.1,4.3-1.1,5-1,1,.2,1.3,1.2,1.2,4-.1,2.9,1.2,4.6,3.8,5.2h.2c2.5.5,7.4.4,10.4-1.4,1.4-.8,2.2-1.9,2.5-3.2.4-2.3-.2-4.9-1.9-7.6-2.9-4.8-5.1-9.1-2.3-13.5,3.8-5.8,13.3-9.1,21.3-7.3,4,.9,7.1,2.9,9.1,5.9,3,4.6,3.1,10,.2,14.1-.6.9-2.3,2-4.1,3.1-3.5,2.2-7.9,5-5.7,8.6.7,1.1,1.5,1.8,2.5,2,1.1.2,2.1,0,3-.4.8-.3,1.6-.5,2.2-.2,1,.4,2.2,1.7,3.4,2.9,1.7,1.8,3.4,3.5,5.1,3.6,1.8.1,3.1-.2,4-.9,1.5-1.3,1.4-3.5,1.3-5.7,0-1,.2-1.7.7-2.1.5-.5,1.3-.5,1.8-.5,1.4,0,2.9,1.2,4.4,2.2,2,1.4,3.9,2.5,5.4,1.9.6-.2,1.1-.7,1.3-1.3.3-1-.1-2.2-1.1-3.5-1.4-1.8-2.5-3.5-1.2-6.3.7-1.5,2.9-3.2,6-4.7,1.6-.8,3-2.2,4.5-3.7,2.5-2.5,5.1-5.1,8.9-5,12.2.6,12.8.3,13.1-.6.3-1.1-1.2-1.8-5.7-4-2.1-1-4.3-4-4.6-7.4.6-.4,1.3-.9,2.1-1.4,2.5-1.7,6.9-1.8,13.8-.3,3.5.8,7.2,1.9,10.8,2.9,3.3,1,6.5,1.9,9.3,2.5,0,0,0,0,0,0,4.3.9,9.4,1.6,10.5-2,.4-1.3.2-2.5-.5-3.6h0Z"/>
        </g>
      </g>
    </g>
  </g>
  <g id="_レイヤー_21" data-name="レイヤー_2">
    <g>
      <path class="st4" d="M613.4,99.3c0-.2,0-.3,0-.5,0-.1,0-.5.2-1.2.8-5.5,1-10.6.7-15.2-.3-4.6-1.3-10.3-2.9-16.9l-.5-2.3,6.6-1.7,6.6-1.7.5,2.1c.9,3.5,1.5,6.3,1.9,8.6,1,4.9,1.5,9.2,1.6,12.9s-.3,7.6-1.1,11.6l-.2.8-6.8,1.7-6.8,1.7ZM642.6,91.6c-2.5-2.5-4.5-5.1-6-7.8-1.6-2.7-3-6.1-4.2-10-.7-2.4-1.4-4.8-2.1-7.4l-.3-1.3,6.6-1.7,6.6-1.7h0c.3,1.2.7,2.8,1.3,5,1.1,3.8,2.3,7,3.7,9.8,1.3,2.7,3,5.4,5,8,.8,1,1.5,2,2.3,2.9l.8,1c-2,.5-4.3,1.1-6.8,1.7l-6.8,1.7-.4-.4Z"/>
      <path class="st4" d="M670.6,80.6l-7.9-4.4,2.3-3.9c1.6-2.7,2.4-4,2.5-4.1l.2-.2,2.4,1.2,2.4,1.2.2-.2c.4-.6.8-1.3,1.2-2,.9-1.7,1.3-3.6,1.3-5.7,0-.8,0-1.3,0-1.3,0,0-3.5.9-10.5,2.6l-10.5,2.6-1.5-5.9-1.5-5.9,17.4-4.4,17.4-4.3.2.7c.4,1.6.7,3.2,1,4.8.5,2.9.6,5.5.4,7.7-.2,2.2-.7,4.3-1.6,6.3-.7,1.6-1.7,3.2-3,4.9-.9,1.2-1.7,2.1-2.4,3l-.6.7s.7.4,2.1,1.1c1.4.7,2.2,1.1,2.2,1.1,0,0-.9,1.5-2.7,4.4-1.8,2.9-2.8,4.4-2.8,4.4,0,0-2.7-1.4-8-4.4Z"/>
      <path class="st4" d="M710.1,76.5c-1.9.3-3.8.3-5.6,0-1.8-.3-3.3-.9-4.6-1.7-1.2-.8-2.3-1.8-3.2-3.2-.9-1.3-1.7-3.1-2.5-5.2-.3-1-.8-2.8-1.5-5.3-.6-2.5-1.1-4.8-1.6-6.9-1.1-5.3-1.8-9.1-2.1-11.6v-.2s6.5-1.6,6.5-1.6l6.5-1.6v.3c.2,1.2.7,3.5,1.4,6.9,1.3,6.5,2.5,11.4,3.6,14.7.4,1.2.8,2,1.1,2.7.3.6.8,1.2,1.3,1.6.9.9,2,1.3,3.3,1.5.6,0,1.2,0,1.8-.2.6-.2,1.1-.4,1.5-.7.6-.4,1.1-1,1.5-1.8.4-.7.6-1.5.7-2.4v-.3s2-.5,2-.5l1.9-.5v.2c.2.5.3,1.2.4,1.9.2,1.3,0,2.7-.2,4-.6,2.6-2.1,4.9-4.5,6.7-1.2.9-2.6,1.7-4.2,2.3-.3.1-.9.3-1.8.5-.9.3-1.5.4-1.8.4Z"/>
      <path class="st4" d="M735,70.8c-1.9.2-3.6-.1-5.1-1-.7-.4-1.2-.9-1.7-1.4-.7-.9-1.3-1.8-1.6-2.9-.4-1.5-.4-2.9.1-4.3.4-1.1,1-2,2-2.8.9-.8,2.1-1.4,3.4-1.8h.5c0-.1,0-.5,0-.5-.5-2-1.7-6.3-3.5-12.9l-.2-.5,4.4-1.1,4.4-1.1.4,1.5.4,1.5,3-.8,3.1-.8h0c0,.2.3,1.4.7,3.9.4,2.2.7,3.4.8,3.8h0c0,.1-2.8.8-2.8.8l-2.8.7.4,1.6.4,1.6,1.8-.4,1.8-.4,1,4.2,1,4.2h-.5c-1.1,0-2.2.2-3.1.4-.2,0-.3,0-.3,0,0,0,0,.2,0,.5.2,1.3.1,2.4-.2,3.4-.5,1.6-1.9,2.8-4,3.7-.4.1-1,.3-1.8.6-.8.2-1.4.4-1.8.4ZM734.5,66.5c.3-.2.5-.4.6-.6,0-.2.1-.3.1-.4,0-.1,0-.4-.1-.7l-.2-.7-1,.2c-.7.2-1.1.3-1.2.3-.4.2-.6.4-.8.7-.1.3-.1.6,0,.9.2.3.6.5,1.2.6.5,0,.9,0,1.3-.3Z"/>
      <path class="st4" d="M758.7,62.6l-.4-1.7h.5c1.5-.6,2.7-1.3,3.5-2.3.6-.6,1-1.3,1.2-2,.5-1.4.7-2.9.4-4.5-.3-1.7-1.1-2.9-2.4-3.7-1.2-.8-2.8-1.1-4.7-.9-.3,0-1.6.3-3.9.9l-3.5.9-1.6-6.3-1.6-6.3,9.1-2.3,9.1-2.3h.5c1.2-.1,2.4,0,3.5.4.7.3,1.4.6,2.2,1.1,1.3.8,2.4,1.7,3.3,2.7,1.3,1.4,2.3,3.1,2.9,5.1s1,3.9.9,6c-.1,3.8-1.5,7.1-4.1,9.9-2.4,2.5-5.5,4.4-9.5,5.7-.2,0-1.1.3-2.8.7l-2.2.5-.4-1.7ZM747.9,29.1l-1.2-4.7,8.1-2,8.1-2,1.2,4.7,1.2,4.7-8.1,2-8.1,2-1.2-4.7Z"/>
    </g>
    <g>
      <path class="st1" d="M760.2,98.9c-5,.6-7.5,1-7.6,1h-.2s-.9-3.7-.9-3.7l-.9-3.8h.2c.1,0,2.7-.3,7.7-1,1.2-.2,2.5-.3,3.7-.5,1.3-.2,2.3-.3,2.9-.4.7,0,1-.1,1-.1h0s.9,3.7.9,3.7l.9,3.8h-.2c-.2,0-2.7.4-7.6,1ZM762.7,109.4l-7.8,1-.9-3.7-.9-3.8h0c0,0,2.7-.4,7.8-1,5.1-.6,7.7-1,7.7-1,0,0,.4,1.2,1,3.7l.9,3.8h0c0,0-2.7.4-7.8,1ZM759.5,127.6h-.3c0,0-1.4-5.4-1.4-5.4l-1.4-5.5h.1s0,0,.2,0c0,0,.2,0,.4-.1.1,0,.3,0,.4-.1,2.5-.7,5-1.6,7.5-2.8,2.5-1.2,4.5-2.4,6.2-3.7,1.8-1.4,3.2-2.9,4.1-4.6.8-1.4,1.4-2.9,1.8-4.7.6-2.9.6-6.2,0-9.9,0-.4-.3-1.2-.6-2.5-.3-1.3-.5-2.1-.7-2.6l-.2-.5,4.3-1.1,4.2-1.1.5,1.9c.3,1.2.8,3,1.3,5.4.6,2.4.9,3.8,1,4.2.4,2,.6,3.4.7,4.2,1,7.8-.1,13.7-3.3,17.8-.9,1.1-1.9,2.1-3.1,3-2.8,2.1-8,4.3-15.5,6.5-.4.1-1.5.4-3.3.9-1.8.5-2.8.7-3,.8Z"/>
      <path class="st1" d="M811.4,110.9l-.8-3.2-.4.6c-2.6,4.1-6,6.9-10.2,8.5-.3.1-1.1.3-2.2.6l-1.7.4-.9-3.6-.9-3.6.4-.2c.6-.3,1.3-.6,1.9-1,2.3-1.4,4.2-3.2,5.6-5.5,1.4-2.3,2.1-4.9,2.3-7.9,0-1,0-1.5,0-1.7l-6.2,1.5-6.2,1.6-1.5-6.1-1.5-6.1,7.5-1.9,7.5-1.9-.5-2-.5-2,6-1.5,6-1.5.5,2,.5,2,2-.5,2-.5,1.5,6.1,1.5,6.1-2,.5-2,.5,2.5,10.1,2.5,10.1-6,1.5-6,1.5-.8-3.2Z"/>
      <path class="st1" d="M843.8,106.2c-1.9.3-3.8.3-5.6,0-1.8-.3-3.3-.9-4.6-1.7-1.2-.8-2.3-1.8-3.2-3.2-.9-1.3-1.7-3.1-2.5-5.2-.3-1-.8-2.8-1.5-5.3-.6-2.5-1.1-4.8-1.6-6.9-1.1-5.3-1.8-9.1-2.1-11.6v-.2s6.5-1.6,6.5-1.6l6.5-1.6v.3c.2,1.2.7,3.5,1.4,6.9,1.3,6.5,2.5,11.4,3.6,14.7.4,1.2.8,2,1.1,2.7.3.6.8,1.2,1.3,1.6.9.9,2,1.3,3.3,1.5.6,0,1.2,0,1.8-.2.6-.2,1.1-.4,1.5-.7.6-.4,1.1-1,1.5-1.8s.6-1.5.7-2.4v-.3s2-.5,2-.5l1.9-.5v.2c.2.5.3,1.2.4,1.9.2,1.3,0,2.7-.2,4-.6,2.6-2.1,4.9-4.5,6.7-1.2.9-2.6,1.7-4.2,2.3-.3.1-.9.3-1.8.5-.9.3-1.5.4-1.8.4Z"/>
      <path class="st1" d="M868.7,100.4c-1.9.2-3.6-.1-5.1-1-.7-.4-1.2-.9-1.7-1.4-.7-.9-1.3-1.8-1.6-2.9-.4-1.5-.4-2.9.1-4.3.4-1.1,1-2,2-2.8.9-.8,2.1-1.4,3.4-1.8l.5-.2v-.3c-.6-2-1.8-6.3-3.6-12.9l-.2-.5,4.4-1.1,4.4-1.1.4,1.5.4,1.5,3-.8,3.1-.8h0c0,.2.3,1.4.7,3.9.4,2.2.7,3.4.8,3.8h0c0,.1-2.8.8-2.8.8l-2.8.7.4,1.6.4,1.6,1.8-.4,1.8-.4,1,4.2,1,4.2h-.5c-1.1,0-2.2.2-3.1.4-.2,0-.3,0-.3,0,0,0,0,.2,0,.5.2,1.3.1,2.4-.2,3.4-.5,1.6-1.9,2.8-4,3.7-.4.1-1,.3-1.8.6-.8.2-1.4.4-1.8.4ZM868.2,96.2c.3-.2.5-.4.6-.6,0-.2.1-.3.1-.4,0-.1,0-.4-.1-.7l-.2-.7-1,.2c-.7.2-1.1.3-1.2.3-.4.2-.6.4-.8.7-.1.3-.1.6,0,.9.2.3.6.5,1.2.6.5,0,.9,0,1.3-.3Z"/>
      <path class="st1" d="M892.4,92.3l-.4-1.7h.5c1.5-.6,2.7-1.3,3.6-2.3.6-.6,1-1.3,1.2-2,.5-1.4.7-2.9.4-4.5-.3-1.7-1.1-2.9-2.4-3.7-1.2-.8-2.8-1.1-4.7-.9-.3,0-1.6.3-3.9.9l-3.5.9-1.6-6.3-1.6-6.3,9.1-2.3,9.1-2.3h.5c1.2-.1,2.4,0,3.5.4.7.3,1.4.6,2.2,1.1,1.3.8,2.4,1.7,3.3,2.7,1.3,1.4,2.3,3.1,2.9,5.1s1,3.9.9,6c-.1,3.8-1.5,7.1-4.1,9.9-2.4,2.5-5.5,4.4-9.5,5.7-.2,0-1.1.3-2.8.7l-2.2.5-.4-1.7ZM881.6,58.8l-1.2-4.7,8.1-2,8.1-2,1.2,4.7,1.2,4.7-8.1,2-8.1,2-1.2-4.7Z"/>
    </g>
    <g>
      <path class="st5" d="M910,149.8l-.7-2.8,1.5-.4c1.7-.4,3.1-.9,4.2-1.4,2.1-.9,3.8-2.1,5.1-3.6,1.4-1.5,2.2-3.1,2.6-4.8.2-.8.2-1.6,0-2.5,0-.3-.3-1.2-.7-2.8l-.6-2.4-2.5.6-2.5.6.4,1.7.4,1.7-5.9,1.5-5.9,1.5-.4-1.7-.4-1.7-2.5.6-2.5.6-1.6-6.4-1.6-6.4,2.5-.6,2.5-.6-.6-2.3-.6-2.3,5.9-1.5,5.9-1.5.6,2.3.6,2.3,2.5-.6,2.5-.6-.6-2.3-.6-2.3,6.5-1.6,6.5-1.6.6,2.3.6,2.3,2.4-.6,2.3-.6,1.6,6.4,1.6,6.4-2.3.6-2.3.6.3,1.2c.6,2.5.9,4.4,1.1,5.5.2,1.1.3,2.2.3,3.3,0,3-.9,5.6-2.7,7.7-1.8,2.1-4.6,3.8-8.5,5.3-1.7.6-4.7,1.5-9.2,2.6l-5.1,1.3-.7-2.8Z"/>
      <path class="st5" d="M939.7,114.8l-1.4-5.7,8.5-2.1,8.5-2.1,1.4,5.7,1.4,5.7-8.5,2.1-8.5,2.1-1.4-5.7ZM947.6,143.6l-.6.2-1.7-6.8-1.7-6.8.6-.2c.2,0,.7-.2,1.5-.4,2.2-.6,4.4-1.2,6.5-2,4.3-1.6,7.2-3.4,8.7-5.4,1.6-2.3,2.8-4.9,3.5-8,.6-2.9.8-5.9.4-9.1-.1-1.3-.4-2.5-.6-3.7v-.4c-.1,0,3.7-1,3.7-1l3.9-1,1.2,5c1.1,4.4,1.8,7.5,2.1,9.4.8,4.8.8,8.8,0,12.1-.7,3.3-2.2,6.1-4.5,8.4-2.1,2.1-5,4-8.7,5.5-1.8.7-4,1.5-6.8,2.2-2.3.6-4.8,1.2-7.4,1.9Z"/>
      <path class="st5" d="M996.2,131.2c-1.9.3-3.8.3-5.6,0-1.8-.3-3.3-.9-4.6-1.7-1.2-.8-2.3-1.8-3.2-3.2-.9-1.3-1.7-3.1-2.5-5.2-.3-1-.8-2.8-1.5-5.3-.6-2.5-1.1-4.8-1.6-6.9-1.1-5.3-1.8-9.1-2.1-11.6v-.2s6.5-1.6,6.5-1.6l6.5-1.6v.3c.2,1.2.7,3.5,1.4,6.9,1.3,6.5,2.5,11.4,3.6,14.7.4,1.2.8,2,1.1,2.7.3.6.8,1.2,1.3,1.6.9.9,2,1.3,3.3,1.5.6,0,1.2,0,1.8-.2.6-.2,1.1-.4,1.5-.7.6-.4,1.1-1,1.5-1.8.4-.7.6-1.5.7-2.4v-.3s2-.5,2-.5l1.9-.5v.2c.2.5.3,1.2.4,1.9.2,1.3,0,2.7-.2,4-.6,2.6-2.1,4.9-4.5,6.7-1.2.9-2.6,1.7-4.2,2.3-.3.1-.9.3-1.8.5-.9.3-1.5.4-1.8.4Z"/>
      <path class="st5" d="M1021.2,125.4c-1.9.2-3.6-.1-5.1-1-.7-.4-1.2-.9-1.7-1.4-.7-.9-1.3-1.8-1.6-2.9-.4-1.5-.4-2.9.1-4.3.4-1.1,1-2,2-2.8.9-.8,2.1-1.4,3.4-1.8h.5c0-.1,0-.5,0-.5-.5-2-1.7-6.3-3.5-12.9l-.2-.5,4.4-1.1,4.4-1.1.4,1.5.4,1.5,3-.8,3.1-.8h0c0,.2.3,1.4.7,3.9.4,2.2.7,3.4.8,3.8h0c0,.1-2.8.8-2.8.8l-2.8.7.4,1.6.4,1.6,1.8-.4,1.8-.4,1,4.2,1,4.2h-.5c-1.1,0-2.2.2-3.1.4-.2,0-.3,0-.3,0s0,.2,0,.5c.2,1.3.1,2.4-.2,3.4-.5,1.6-1.9,2.8-4,3.7-.4.1-1,.3-1.8.6-.8.2-1.4.4-1.8.4ZM1020.7,121.2c.3-.2.5-.4.6-.6,0-.2.1-.3.1-.4,0-.1,0-.4-.1-.7l-.2-.7-1,.2c-.7.2-1.1.3-1.2.3-.4.2-.6.4-.8.7-.1.3-.1.6,0,.9.2.3.6.5,1.2.6.5,0,.9,0,1.3-.3Z"/>
      <path class="st5" d="M1044.9,117.3l-.4-1.7h.5c1.5-.6,2.7-1.3,3.6-2.3.6-.6,1-1.3,1.2-2,.5-1.4.7-2.9.4-4.5-.3-1.7-1.1-2.9-2.4-3.7-1.2-.8-2.8-1.1-4.7-.9-.3,0-1.6.3-3.9.9l-3.5.9-1.6-6.3-1.6-6.3,9.1-2.3,9.1-2.3h.5c1.2-.1,2.4,0,3.5.4.7.3,1.4.6,2.2,1.1,1.3.8,2.4,1.7,3.3,2.7,1.3,1.4,2.3,3.1,2.9,5.1s1,3.9.9,6c-.1,3.8-1.5,7.1-4.1,9.9-2.3,2.5-5.5,4.4-9.5,5.7-.2,0-1.1.3-2.8.7l-2.2.5-.4-1.7ZM1034.1,83.8l-1.2-4.7,8.1-2,8.1-2,1.2,4.7,1.2,4.7-8.1,2-8.1,2-1.2-4.7Z"/>
    </g>
  </g>
</svg>
