<?xml version="1.0" encoding="UTF-8"?>
<svg xmlns="http://www.w3.org/2000/svg" viewBox="0 0 1085.7086 257.013">
  <defs>
    <style>
      .cls-1 {
        font-family: ProjectPaintball, 'Project Paintball';
      }

      .cls-2 {
        fill: #1362e2;
      }

      .cls-3 {
        isolation: isolate;
      }

      .cls-4 {
        fill: #0a0916;
      }

      .cls-5 {
        mix-blend-mode: multiply;
        opacity: .78;
      }

      .cls-6, .cls-7 {
        font-family: KozGoPr6N-Regular-90ms-RKSJ-H, 'Kozuka Gothic Pr6N';
      }

      .cls-6, .cls-8 {
        font-size: 54.3984px;
      }

      .cls-9 {
        font-family: ikamodoki, ikamodoki;
      }
    </style>
  </defs>
  <g class="cls-3">
    <g id="_レイヤー_1" data-name="レイヤー_1">
      <g>
        <path class="cls-4" d="M23.9571,105.2649v-6.2549l1.251-.0488c5.5171-.2236,10.04-1.251,13.5693-3.0791,7.0889-3.6572,10.9707-10.7139,11.6445-21.1719.064-.6738.0962-1.708.0962-3.1035s-.0322-2.334-.0962-2.8149l-.0483-.6255h-26.4165v-31.7578h58.6558l.0962,1.54c0,.2886.0239.8101.0718,1.5635.0483.7544.0884,1.2754.1206,1.564.1602,2.1816.2563,4.8599.2886,8.0356.1924,12.7031-1.4917,23.4814-5.0522,32.335-.3535.9312-.5293,1.4438-.5293,1.54.064,1.0269.4644,2.4707,1.2026,4.3306,1.3477,3.4966,3.4648,6.2476,6.3516,8.2524,2.8872,2.0049,6.3516,3.1357,10.3936,3.3916l.8662.0488v12.5107h-1.5396c-1.7007,0-3.6089-.1602-5.7261-.4814-9.3994-1.3154-16.9858-5.1973-22.7598-11.6445l-.4814-.5293-.7695.625c-8.2124,6.6729-19.2471,10.5859-33.105,11.7412-2.4707.1924-4.4595.2891-5.9668.2891h-2.1172v-6.2559Z"/>
        <path class="cls-4" d="M110.7618,105.6018v-6.3994l1.7319-.0479c2.9834-.0967,5.6133-.5459,7.8916-1.3477,3.0796-1.0586,5.7656-2.7266,8.0596-5.0039,2.293-2.2783,4.0977-5.0688,5.4131-8.373,1.2827-3.1758,2.1333-6.9771,2.5503-11.4038.0317-.5449.0483-1.7637.0483-3.6567s-.0166-3.0474-.0483-3.4648l-.0479-.5293h-33.875v-26.8496h66.6914l-.0483,4.812c-.1284,15.9434-1.3472,28.4541-3.6567,37.5317-1.0273,3.978-2.1978,7.314-3.5127,10.0088-1.187,2.4053-2.4541,4.4434-3.8013,6.1104-1.2197,1.54-2.6787,3.0156-4.3789,4.4268-1.8931,1.6045-3.9458,3.0479-6.1592,4.3311-2.9829,1.7002-6.3115,3.0068-9.9844,3.9219-3.6733.9141-8.188,1.5479-13.5449,1.9004-3.8818.2881-7.7471.4326-11.5967.4326h-1.7319v-6.3994ZM151.9503,34.4358c-.6733-.0962-1.1387-.1602-1.395-.1924-2.1499-.2563-4.0742-1.2349-5.7744-2.9355-2.021-1.9561-3.208-4.2656-3.5605-6.9287-.0322-.3848-.0962-.834-.1924-1.3472-.0327-.353-.0483-.9624-.0483-1.8286s.0317-1.3472.0962-1.4434c.0317-.064.0796-.3203.1445-.77.1602-1.3149.7939-2.7021,1.9004-4.1621,1.1069-1.4595,2.478-2.7021,4.1143-3.7295.8975-.5449,1.8926-1.0103,2.9834-1.395.7373-.2241,1.8682-.3853,3.3921-.4814,1.5234-.0962,2.7983-.064,3.8257.0962,1.9243.2573,3.7363,1.3315,5.437,3.2241,1.1548,1.3154,2.0527,2.8232,2.6948,4.5229.3203.9624.5293,2.1816.6255,3.6567.064,1.0273.1279,1.5083.1924,1.4438v.5293c-.0322.0962-.0566.3608-.0723.7939-.0166.4331-.0239.7456-.0239.938-.0322,1.1548-.209,2.1338-.5293,2.9355-.6421,1.7646-1.7163,3.2959-3.2241,4.5952-1.5078,1.2988-3.1274,2.0771-4.8599,2.3335-2.3096.3213-4.2183.3691-5.7261.1445ZM154.8375,25.5818c1.3149-.2563,2.1655-1.0259,2.5503-2.3096.0962-.3848.1279-.8657.0962-1.4434-.0322-.9302-.2407-1.6841-.6255-2.2617-.7383-1.186-1.9248-1.6841-3.5605-1.4917-.8345.0967-1.6045.498-2.3096,1.2031-.6099.6099-.9624,1.2197-1.0586,1.8286-.2251,1.0908-.0483,2.0688.5293,2.9351.481.7061,1.042,1.1714,1.6841,1.3955.7695.2886,1.6675.3369,2.6943.144Z"/>
        <path class="cls-4" d="M182.9864,105.8909v-5.1484h.9624c.5449,0,1.2344-.0322,2.0688-.0967,5.646-.3848,10.5059-1.6758,14.5801-3.873,4.0732-2.1973,7.0566-5.125,8.9497-8.7817,1.251-2.3735,1.9888-5.0527,2.2134-8.0356l.0483-.5776h-36.4253v-24.2515h64.7183v2.0693c0,5.6777-.0645,10.3135-.1924,13.9058-.3535,10.6821-1.3638,18.061-3.0312,22.1343-.7383,1.7324-1.7168,3.4326-2.9355,5.1006-1.3794,1.8926-2.4058,3.1758-3.0791,3.8496-4.7158,4.7148-14.5483,7.5381-29.4966,8.4688-2.6304.1602-6.4644.2568-11.5.2881l-6.8809.0488v-5.1006ZM184.8629,40.6428v-10.249h41.8628v20.4502h-41.8628v-10.2012Z"/>
        <path class="cls-4" d="M246.1651,108.9221c.0962-.2891.2085-.5771.3369-.8662.064-.1279.144-.3203.2407-.5771.0962-.2568.2163-.5693.3608-.9385.144-.3682.2646-.6494.3608-.8418,4.1694-10.3613,7.0732-20.1533,8.709-29.3765,1.6362-9.2217,2.5337-20.6978,2.6948-34.4282l.0479-4.6675h27.6196v4.2827c-.0322,7.2178-.1763,13.1362-.4331,17.7554-.481,10.0083-1.5635,18.686-3.2476,26.0317-1.6841,7.3467-4.291,14.7236-7.8193,22.1338l-.7217,1.4922h-28.1489ZM306.9859,108.0559c-3.5928-6.0625-6.2476-12.1328-7.9634-18.2124-1.7163-6.0786-2.8149-13.2725-3.2959-21.5811-.2891-5.0356-.4331-10.1685-.4331-15.3975v-2.5986h27.5713v.2407c0,2.1816.0796,5.5981.2407,10.249.3203,7.9561,1.1143,14.9165,2.3818,20.8833,1.2666,5.9663,3.2314,12.0288,5.894,18.188.8662,2.0215,1.9082,4.2666,3.1279,6.7363l1.1064,2.3584h-28.1006l-.5293-.8662ZM302.3184,35.5906v-10.7783h12.126v21.5566h-12.126v-10.7783ZM317.8604,35.5906v-10.7783h12.126v21.5566h-12.126v-10.7783Z"/>
        <path class="cls-4" d="M343.6998,108.3928c-.2886-.4492-.6177-.9463-.9863-1.4922-.3691-.5449-.6338-.9453-.7939-1.2021l-.2886-.4336c0-.0312.4971-.5449,1.4917-1.54,1.2827-1.251,2.4697-2.5811,3.5605-3.9932,3.8813-5.0684,6.271-11.6123,7.1694-19.6323.353-3.272.5132-8.1475.4814-14.6279v-15.3975l.0479-9.7681h22.2305l-.0479,14.2432c0,8.5649-.0483,13.9058-.1445,16.0229-.2886,6.2554-.7217,11.1152-1.2993,14.5796-.481,2.8872-1.0669,5.2212-1.7559,7.001-.6904,1.7803-1.6445,3.4404-2.8633,4.9805-1.0586,1.3154-2.23,2.5342-3.5127,3.6572-4.6191,3.9775-11.0669,7.3613-19.3433,10.1523-1.0586.3535-1.6357.5293-1.7319.5293-.1289,0-.8662-1.0264-2.2139-3.0791ZM383.397,73.7962v-33.4902h21.8936v42.2959h.7217c1.6362,0,3.063-.0967,4.2827-.2891,2.6943-.3525,4.6987-1.1865,6.0146-2.502.5449-.5776,1.042-1.2993,1.4917-2.1655.8975-1.8599,1.4268-4.1382,1.5879-6.8325l.0483-.8179.7217.0479c.2563.0322,1.4751.0483,3.6567.0483h2.9351v3.9453c0,4.2993-.144,7.7314-.4331,10.2974-.8018,6.8647-2.9189,12.062-6.3511,15.5903-3.978,4.1377-10.4741,6.5283-19.4878,7.1689-1.8931.1289-5.6943.1934-11.4038.1934h-5.6782v-33.4902Z"/>
        <path class="cls-4" d="M432.814,68.6472v-13.665h52.5928v27.2827h-52.5928v-13.6177Z"/>
        <path class="cls-4" d="M492.817,111.4241h-1.3472v-28.1968l1.2031-.0483c.4487-.0317,1.459-.0483,3.0312-.0483,4.6191,0,9.1738-.2236,13.6655-.6733,9.1738-.9302,15.7344-3.0312,19.6802-6.3037,4.2983-3.6245,7.8589-8.292,10.6821-14.002,2.6299-5.3892,4.3784-11.2432,5.2446-17.563.3525-2.6299.5293-5.1323.5293-7.5063v-.8662h16.0239v10.3452c0,9.1108-.1777,15.5903-.5293,19.4395-.8672,9.7524-2.7998,17.6592-5.7988,23.7222-3,6.0625-7.3223,10.8105-12.9678,14.2432-5.1968,3.1436-11.7573,5.293-19.6802,6.4473-3.7856.5459-8.5493.8828-14.291,1.0107-4.7803.0645-9.9287.0645-15.4458,0ZM491.4698,51.1326v-11.8853h17.6592l17.7075.0483v23.7222h-17.7075l-17.6592.0479v-11.9331Z"/>
      </g>
      <text class="cls-8" transform="translate(617.054 131.1592) rotate(-6.3783)"><tspan class="cls-9" x="0" y="0">ハマしょう</tspan><tspan class="cls-7" x="195.334" y="4.3623"> </tspan><tspan class="cls-1" x="208.0078" y="1.3701">vs </tspan><tspan class="cls-9" x="287.374" y="0">シオしょう</tspan></text>
      <text class="cls-6" transform="translate(611.3826 80.4239) rotate(-6.3783)"><tspan x="0" y="0"> </tspan></text>
      <g>
        <path class="cls-4" d="M132.2569,252.6341c0-.417-.0483-3.0635-.1445-7.9395,0-.7373-.0083-1.6191-.0239-2.6465-.0166-1.0264-.0322-1.8359-.0483-2.4297-.0166-.5938-.0239-.9707-.0239-1.1309l-.0483-1.0586-.5293.0479c-.0962.0322-.2969.0645-.6011.0967-.3057.0322-.5054.0479-.6016.0479-.5137.0645-3.9624.0957-10.3452.0957l-9.6719.0488v-14.0029l.7217-.1924c5.6133-1.3467,10.5537-3.2881,14.8203-5.8223,2.3413-1.4111,4.2983-2.71,5.8706-3.8975.4487-.3203.978-.9297,1.5879-1.8281,2.3735-3.5293,3.9937-6.6406,4.8599-9.335.7695-2.4053,1.4434-5.7256,2.021-9.96l.1924-1.7324v-10.9229h33.105l-.0483,3.7529c-.0322,3.2715-.1768,5.8867-.4331,7.8438-1.2192,10.2656-4.8281,19.3906-10.8262,27.3789-1.54,2.085-3.4648,4.25-5.7744,6.4961l-.8662.8174-.0479,3.3203c-.0962,4.2666-.2407,9.2227-.4331,14.8682-.2246,7.1211-.3535,10.6992-.3848,10.7305,0,.0645-3.7217.0957-11.1636.0957h-11.1152l-.0479-2.7422Z"/>
        <path class="cls-4" d="M229.3585,241.3743c-11.0674-10.4248-16.7773-15.8145-17.1299-16.168l-.5293-.5293-7.2178,7.2656-7.2656,7.2188-8.9019-8.9023c-5.9351-5.9336-8.9019-8.918-8.9019-8.9492,0-.0645,2.1411-2.2461,6.4238-6.5449,4.2822-4.2979,9.2383-9.2305,14.8682-14.7959s10.0806-9.9365,13.353-13.1123l.481-.4805,10.4897,9.7676,10.4414,9.8164v-10.6348l.0483-10.6338h12.1255v21.5566h-5.9185l-5.9185.0479,15.7344,14.6758c10.4897,9.7852,15.7344,14.709,15.7344,14.7725,0,.0322-3.5288,3.585-10.5854,10.6582-7.0576,7.0732-10.6187,10.6104-10.6826,10.6104-.0322,0-5.5815-5.2129-16.6484-15.6387ZM251.0596,195.47v-10.7783h12.1255v21.5566h-12.1255v-10.7783Z"/>
        <path class="cls-4" d="M274.6373,255.6653h-1.3472v-28.1973l1.2031-.0479c.4487-.0322,1.459-.0479,3.0312-.0479,4.6191,0,9.1738-.2246,13.6655-.6738,9.1738-.9297,15.7344-3.0312,19.6802-6.3037,4.2983-3.624,7.8589-8.292,10.6821-14.002,2.6299-5.3896,4.3784-11.2432,5.2446-17.5635.3525-2.6289.5293-5.1318.5293-7.5059v-.8662h16.0234v10.3447c0,9.1113-.1768,15.5908-.5293,19.4395-.8662,9.7529-2.7993,17.6602-5.7983,23.7227-3,6.0625-7.3223,10.8105-12.9678,14.2432-5.1968,3.1436-11.7573,5.293-19.6802,6.4473-3.7856.5459-8.5493.8828-14.291,1.0107-4.7803.0645-9.9287.0645-15.4458,0ZM273.2901,195.3743v-11.8857h17.6592l17.7075.0479v23.7227h-17.7075l-17.6592.0479v-11.9326Z"/>
        <path class="cls-4" d="M349.3643,217.219v-38.3018h26.9941v21.7012l14.1948,6.9766c6.6401,3.2734,10.6738,5.2617,12.1016,5.9668,1.4268.707,2.1245,1.0918,2.0928,1.1553-.0322.1279-1.6201,4.0342-4.7632,11.7168-3.1445,7.6826-4.7324,11.5244-4.7637,11.5244-.0967,0-3.2407-1.4756-9.4312-4.4277l-9.3833-4.4258c-.0322,3.9775-.0479,8.3887-.0479,13.2324v13.1836h-26.9941v-38.3018Z"/>
        <path class="cls-4" d="M432.8487,252.6341c0-.417-.0483-3.0635-.1445-7.9395,0-.7373-.0083-1.6191-.0239-2.6465-.0166-1.0264-.0322-1.8359-.0483-2.4297-.0166-.5938-.0239-.9707-.0239-1.1309l-.0483-1.0586-.5293.0479c-.0962.0322-.2969.0645-.6011.0967-.3057.0322-.5054.0479-.6016.0479-.5137.0645-3.9624.0957-10.3452.0957l-9.6719.0488v-14.0029l.7217-.1924c5.6133-1.3467,10.5537-3.2881,14.8203-5.8223,2.3413-1.4111,4.2983-2.71,5.8706-3.8975.4487-.3203.978-.9297,1.5879-1.8281,2.3735-3.5293,3.9937-6.6406,4.8599-9.335.7695-2.4053,1.4434-5.7256,2.021-9.96l.1924-1.7324v-10.9229h33.105l-.0483,3.7529c-.0322,3.2715-.1768,5.8867-.4331,7.8438-1.2192,10.2656-4.8281,19.3906-10.8262,27.3789-1.54,2.085-3.4648,4.25-5.7744,6.4961l-.8662.8174-.0479,3.3203c-.0962,4.2666-.2407,9.2227-.4331,14.8682-.2246,7.1211-.3535,10.6992-.3848,10.7305,0,.0645-3.7217.0957-11.1636.0957h-11.1152l-.0479-2.7422Z"/>
        <path class="cls-4" d="M481.3511,255.6653h-1.3472v-28.1973l1.2031-.0479c.4487-.0322,1.459-.0479,3.0312-.0479,4.6191,0,9.1738-.2246,13.6655-.6738,9.1738-.9297,15.7344-3.0312,19.6802-6.3037,4.2983-3.624,7.8589-8.292,10.6821-14.002,2.6299-5.3896,4.3784-11.2432,5.2446-17.5635.3525-2.6289.5293-5.1318.5293-7.5059v-.8662h16.0234v10.3447c0,9.1113-.1768,15.5908-.5293,19.4395-.8662,9.7529-2.7993,17.6602-5.7983,23.7227-3,6.0625-7.3223,10.8105-12.9678,14.2432-5.1968,3.1436-11.7573,5.293-19.6802,6.4473-3.7856.5459-8.5493.8828-14.291,1.0107-4.7803.0645-9.9287.0645-15.4458,0ZM480.004,195.3743v-11.8857h17.6592l17.7075.0479v23.7227h-17.7075l-17.6592.0479v-11.9326Z"/>
        <path class="cls-4" d="M564.3541,249.843v-6.3516l1.7324-.0479c2.8555-.0967,5.4688-.5615,7.8438-1.3955,6.2549-2.1816,10.7461-6.624,13.4727-13.3281,1.2832-3.1113,2.1328-6.9131,2.5508-11.4043.0635-.5449.0957-1.7559.0957-3.6328s-.0322-3.0234-.0957-3.4414l-.0488-.5762h-33.8267v-26.7539h66.5474l-.0488,4.8115c-.1289,16.0068-1.332,28.4854-3.6094,37.4355-1.0254,3.9775-2.1973,7.3135-3.5117,10.0088-1.123,2.3096-2.3906,4.3301-3.8008,6.0625-1.2207,1.54-2.6797,3.0156-4.3789,4.4268-2.3418,1.8936-4.3955,3.3369-6.1602,4.3311-2.9512,1.7002-6.2637,3.0068-9.9355,3.9219-3.6738.9141-8.1885,1.5479-13.5449,1.9004-3.8828.2881-7.748.4326-11.5967.4326h-1.6846v-6.3994Z"/>
        <path class="cls-4" d="M654.3824,251.72v-5.0527l-.8662.8662c-4.876,4.7158-10.5703,7.5713-17.082,8.5645-1.3789.2256-3.1436.3369-5.293.3369h-2.165v-11.3555l.5771-.0957c1.8926-.2568,3.7539-.7705,5.582-1.54,2.2129-.8662,4.2344-2.0371,6.0625-3.5127.4492-.3525,1.083-.9463,1.9014-1.7803.8174-.834,1.4189-1.4922,1.8037-1.9727,2.3418-2.9189,4.0732-6.4795,5.1973-10.6826l.2402-.8184h-19.6797v-19.4873h23.7217v-6.3994h19.1025v6.3994h6.3037v19.4873h-6.3037v32.0469h-19.1025v-5.0039Z"/>
        <path class="cls-4" d="M685.8033,250.0833v-5.2441l.7695-.1445c2.5664-.5449,5.084-1.5557,7.5547-3.0312,4.7793-2.8877,8.8535-7.4424,12.2217-13.666,1.251-2.3096,1.877-3.5918,1.877-3.8496,0-.0635-2.8711-1.7148-8.6133-4.9551-3.7852-2.1172-6.1758-3.4727-7.1689-4.0664-.9951-.5938-1.4766-.9219-1.4443-.9863.0322-.0967,1.2676-3.0713,3.7051-8.9258,2.4375-5.8535,3.6729-8.7969,3.7051-8.8301.0322-.0312,2.5098.8984,7.4346,2.791,4.9238,1.8926,7.7715,3,8.541,3.3203.0635,0,.0957-.0312.0957-.0957,0-.0322.0322-.4014.0967-1.1074.5449-4.5869.7861-10.7939.7217-18.6211l-.0479-4.5723h27.5713l-.0479,3.8984c-.1924,13.665-.9307,23.834-2.2139,30.5059l-.0957.3848.4326.1445c.1602.0645,1.0742.4502,2.7432,1.1553,5.7734,2.4053,8.6611,3.7529,8.6611,4.042,0,.0645-1.9092,4.1064-5.7266,12.125-3.8174,8.0205-5.7422,12.0469-5.7734,12.0781-.0332,0-1.9736-1.0742-5.8223-3.2236l-5.7744-3.2725-.2402.3369c-.9629,1.3799-2.1172,2.7598-3.4648,4.1387-2.2783,2.3418-5.0039,4.5068-8.1797,6.4951-8.3086,5.1973-18.1885,7.9717-29.6406,8.3252l-1.877.0479v-5.1973Z"/>
        <path class="cls-4" d="M758.317,212.888v-13.6641h52.5928v27.2822h-52.5928v-13.6182Z"/>
        <path class="cls-4" d="M817.5982,255.762h-.626v-22.7607h.2402c.0322,0,.1523-.0068.3613-.0234.208-.0156.4648-.0312.7695-.0488.3047-.0156.585-.0234.8428-.0234,5.2598-.1279,10.5693-.7285,15.9268-1.8047,5.3564-1.0742,10.0244-2.4941,14.002-4.2578,4.1387-1.8281,7.5859-4.1699,10.3457-7.0254,2.2129-2.2773,4.1377-5.0352,5.7734-8.2764,2.6299-5.3242,4.251-11.7881,4.8604-19.3916.0635-.834.1035-2.5576.1201-5.1719.0156-2.6152-.0078-4.4033-.0723-5.3652l-.0479-1.0586h17.6592l.0479,3.9453c.0322,2.4707.0322,6.1758,0,11.1152-.0322,4.9404-.0645,7.8438-.0957,8.709-.2578,4.042-.498,6.9141-.7217,8.6133-1.9248,15.6543-6.9619,26.6895-15.1094,33.1055-2.2783,1.7637-4.7637,3.2402-7.458,4.4268-6.5127,2.79-17.708,4.5225-33.5859,5.1963-.8994.0322-3.2002.0645-6.9053.0967s-5.8145.0322-6.3271,0ZM832.8511,199.9446c-10.041-1.1855-15.1738-1.7959-15.3975-1.8281l-.4814-.0479v-15.6387l.3369.0479c.2236.0645,5.4209.6738,15.5898,1.8291,2.4375.2881,4.9561.585,7.5547.8896,2.5986.3057,4.5547.5381,5.8701.6982,1.3154.1611,1.9893.2402,2.0215.2402l.1445.0479v15.543l-.3369-.0488c-.3213,0-5.4219-.5771-15.3018-1.7324ZM832.6109,221.6946l-15.6387-1.877v-15.542h.1924c.1924,0,5.4209.6104,15.6865,1.8291,10.2646,1.2188,15.4453,1.8281,15.542,1.8281.0635,0,.0967,2.5977.0967,7.7949v7.7949h-.1445c-.1611,0-5.4062-.6094-15.7344-1.8281Z"/>
        <path class="cls-4" d="M893.9127,246.5227v-9.0938h22.375v-4.2344h-22.375v-11.3555h22.375v-4.2344h-22.375v-19.7773h40.0342v57.7412h-40.0342v-9.0459Z"/>
        <path class="cls-4" d="M941.3091,255.6653h-1.3477v-28.1973l1.2031-.0479c.4482-.0322,1.459-.0479,3.0312-.0479,4.6191,0,9.1738-.2246,13.665-.6738,9.1748-.9297,15.7354-3.0312,19.6807-6.3037,4.2979-3.624,7.8584-8.292,10.6816-14.002,2.6299-5.3896,4.3789-11.2432,5.2451-17.5635.3525-2.6289.5293-5.1318.5293-7.5059v-.8662h16.0234v10.3447c0,9.1113-.1768,15.5908-.5293,19.4395-.8662,9.7529-2.7988,17.6602-5.7979,23.7227-3,6.0625-7.3223,10.8105-12.9678,14.2432-5.1973,3.1436-11.7578,5.293-19.6807,6.4473-3.7852.5459-8.5488.8828-14.291,1.0107-4.7803.0645-9.9287.0645-15.4453,0ZM939.9615,195.3743v-11.8857h17.6592l17.707.0479v23.7227h-17.707l-17.6592.0479v-11.9326Z"/>
      </g>
    </g>
    <g id="_レイヤー_2" data-name="レイヤー_2">
      <g class="cls-5">
        <path class="cls-2" d="M181.5554,77.8702c1.3579-.3641,2.6173-1.5409,2.8642-2.6804.2471-1.1302-.676-3.5059-2.9311-4.001l-.2581-.0464c-1.4024-.2007-2.4556.508-3.414,1.1544l-1.527.8498.039.6724c.0428.8015.0837,1.5593.3846,2.2793.039.0957.1115.1782.1653.2693-1.6717-1.565-3.8802-2.6888-6.4028-3.2413-4.1256-.9056-8.5426-.1923-11.5277,1.8602l-1.5249,1.0513.3437.0753c-.8156.6148-1.2056,1.3364-1.3876,1.9447-.8953,2.9629,1.8481,7.1292,4.4709,9.7984,2.5634,2.6108,4.1665,3.7606,5.7119,4.0996h.0019c1.9985.4392,3.5384-.5879,5.6689-2.0099.6372-.4253,1.345-.8989,2.1621-1.4015l.979-.5925c2.5188-1.5139,4.9002-2.945,5.1174-5.2903.1486-1.5751-.704-3.2952-2.6599-5.3542.3975.2442.8563.443,1.395.5609.8025.1765,1.6736.1765,2.3293.0019Z"/>
        <path class="cls-2" d="M184.3509,46.0364c-1.9763,2.2698-2.6543,4.0362-2.0729,5.4015.3641.8535,1.2223,1.4675,2.4185,1.7303,2.7694.6083,7.2182-.6882,7.8052-2.7983.3028-1.0986-.21-2.6814-4.4823-4.0067l-3.3193-.7281-.3492.4013Z"/>
        <path class="cls-2" d="M124.194,170.827c-1.7684-.8666-3.6408-1.5316-5.4166-1.9207-4.8406-1.0625-8.4907-.0139-10.0156,2.8737l-.405.7681c-2.9237,3.2691-4.1385,7.6093-2.9739,11.1793,1.018,3.1244,3.7745,5.3264,7.7588,6.2004l.0019.001c.3918.0854.7987.1598,1.2259.2229,7.8609,1.1525,10.2107-3.8665,11.4756-6.5635,3.0203-6.4475,2.4668-10.741-1.6512-12.7611Z"/>
        <path class="cls-2" d="M112.0293,194.5528c-.4162-1.3318-2.5541-1.9865-3.7912-2.2578-.1208-.0261-.2416-.051-.3566-.0725l-.0167-.1299-3.0239-.6633-.353.3334c-2.2439,2.125-3.1595,3.6862-2.8809,4.9104.1151.5172.455.9566.9602,1.2603.8713,1.1795,2.4352,2.1956,4.0644,2.6218l.2804.0677h.0019c1.7535.3846,2.8197-.1096,3.4066-.5925,1.135-.9305,1.3857-2.5271,1.239-3.8496.6018-.6241.598-1.2168.47-1.6282Z"/>
        <path class="cls-2" d="M173.2525,148.628c-3.5609-.7802-7.0029.0361-8.9811,2.1324l-.1449.1541-.1486.6817c-1.3579.8257-2.3888,2.0173-2.9962,3.4681-1.122,2.685,1.2613,5.7015,3.3361,6.7613.2897.1476.665.3918,1.1127.6798,1.3261.8516,3.3286,2.1379,5.4814,2.6108,1.9356.4244,3.6573.1309,5.1193-.8731,2.9775-2.0489,5.7694-5.8615,5.0765-8.8937-.7336-3.1968-3.8152-5.8344-7.8552-6.7214Z"/>
        <path class="cls-2" d="M41.6894,92.8278l-.3715.8972,1.1331.2488c-.0149.7188.1968,1.4108.6353,2.0339.7262,1.0338,2.0451,1.8269,3.6202,2.1714,2.9031.6372,6.2542-.3241,7.0491-3.3908.3363-1.2974.1579-2.4824-.5107-3.4279-.6633-.94-1.7628-1.6002-3.1801-1.9114-3.089-.6771-7.1904.5193-8.3754,3.3789Z"/>
        <path class="cls-2" d="M15.1736,74.7227h.0017c1.2651.2777,2.7474.5126,4.538.7188,3.0407.353,5.5501.0502,7.9724-.2404,1.5045-.1811,3.0574-.3688,4.7478-.4021,1.0884-.0215,2.0822.0706,3.0388.2794,1.7832.392,3.1839,1.1405,4.6698,1.9346,1.4172.758,2.8847,1.5428,4.7571,2.0563,3.4346.9463,5.4314.9463,6.4547.1058.3102-.2545.509-.5832.5853-.9602.637-.2454,1.0159-.7532,1.068-1.4629.1134-1.5167-.8044-3.2358-2.452-4.5983-1.3022-1.0773-3.0612-1.577-6.4585-1.7201-1.6141-.7875-3.2301-1.3725-4.9427-1.7665-.587-.129-1.1945-.2246-1.8112-.3019l-11.8416-5.1406c-.9769-.7783-1.6698-1.8585-2.1157-3.2971-.4588-1.4768-2.1973-2.5783-3.6796-2.9033-1.1015-.2414-2.0432-.0474-2.5876.5313-.652.6939-.637,1.7638.0409,3.1782.0706.144.1524.2916.2378.4403-.6167,1.6206-2.4018,3.311-3.9862,4.8119-2.2327,2.1164-4.1646,3.9434-3.4698,5.8204.4885,1.3132,2.1509,2.2401,5.2326,2.9163Z"/>
        <path class="cls-2" d="M178.9903,23.87c.8915.7449,1.9763,1.2733,3.1428,1.5287,2.203.4829,4.5155-.0232,6.5087-1.4247,2.9739-2.0934,2.8866-4.2565,2.569-5.3599-.6001-2.087-2.8904-3.8544-5.8364-4.5007-1.7813-.3901-3.5906-.3224-5.2326.1988l-1.0625.3361.3234.4384c-.8025.2749-1.4342,1.2417-1.7052,1.7246-1.1146,1.9626-1.3598,4.8482,1.2928,7.0586Z"/>
        <path class="cls-2" d="M186.2568,9.673c1.1721.2574,2.4035.1514,3.5533-.3055,2.7584-1.0941,2.9478-2.7194,2.816-3.5915-.405-2.6814-1.5938-4.864-4.4672-4.849,0,0-9.2449-4.173-5.8196,5.1879.587,1.604,1.9059,3.1169,3.9175,3.558Z"/>
        <path class="cls-2" d="M44.6707,170.1211c1.3615.2981,2.9124.1904,4.6047-.3222,3.061-.9269,4.666-2.9581,4.3986-5.5735-.2954-2.8895-2.829-5.7426-5.6488-6.3609-1.0922-.2397-2.164-.1255-3.0722.3129-3.7372,1.6346-4.9781,5.0709-4.5471,7.5731.3844,2.2346,1.9782,3.8681,4.2649,4.3706Z"/>
        <path class="cls-2" d="M34.2351,166.0328c.951-1.6782.6874-2.8837.2992-3.597-.4997-.9204-1.4916-1.5844-2.7882-1.8696-2.0933-.4588-4.9315.1373-6.3062,2.1657l-.2954.4375.8099,1.1062c-.2861.925-.0335,1.6708.2526,2.1556.5145.8721,1.5103,1.5258,2.7268,1.7923,1.6662.366,4.055.0122,5.3013-2.1908Z"/>
        <path class="cls-2" d="M218.8448,127.576c-.9716-1.4237-2.9665-2.4501-6.1-3.1373-4.3021-.9436-10.337-1.1608-16.1753-1.3708-5.6728-.2033-11.5369-.4152-15.5508-1.2955q-.0019,0-.0038-.001c-2.8457-.6243-4.4524-1.4971-4.8889-2.6637,2.3125-2.0674,5.7024-2.3367,8.9847-2.5977,1.7107-.1366,3.4829-.2777,5.0618-.6762,3.2636-.8247,5.4833-2.0229,6.3081-3.3937,2.2996-1.1785,5.8641-3.4605,5.8194-6.2774-.0242-1.5371-1.0884-2.9033-3.1632-4.0642-.5109-.2851-1.0366-.4885-1.5641-.6047-3.5738-.7838-6.3583,2.4733-9.0535,5.6227-.325.3808-.6501.7606-.9769,1.134-1.0161.272-1.9709.7717-2.8978,1.2546-1.6272.8518-3.1633,1.6552-4.9353,1.278l-.3622-.077c-1.3746-.3019-1.9578-.4978-2.2049-.6102.0259-.0651.0576-.1366.0854-.1969.3232-.7523.8656-2.0099-.1579-4.1144-.7654-1.578-1.3876-3.886-2.8699-4.5342-.4626-.2016-1.0811-.4727-1.904-.8498-1.3782-.6315-3.4215-.8628-5.3439-1.0197-1.9709-.1607-4.0271-.405-5.1991-1.0635-2.7158-1.5316-3.47-3.8589-4.2706-6.3229-.8525-2.6302-1.733-5.3515-5.2066-6.6312-2.8976-1.0663-6.3396-.1115-9.9376.9202-3.3621.9642-6.8152,1.9719-9.6013,1.0115-3.1114-1.0644-4.9745-2.6237-5.3869-4.5081-.4772-2.1891,1.0032-4.7664,3.9639-6.8941,2.4223-1.7434,5.1807-2.7,8.4275-2.9265,7.8238-.5461,12.447-3.4002,12.3671-7.6344-.011-.6743-.0352-1.355-.0612-2.0293-.0799-2.308-.156-4.4887.2322-6.1064,1.7145-7.1811,4.993-11.2046,10.0694-15.7285.9957-.8888,2.1214-1.7942,3.286-2.7295,4.0994-3.2954,8.7469-7.0307,9.7872-11.7024.5906-2.6525.0074-5.3606-1.6421-7.6222-2.6154-3.585-7.4578-5.164-12.0664-3.8005-4.3261,1.278-4.8516,3.3343-5.407,5.5103-.2303.9027-.4681,1.8353-.9919,2.8299-.8247,1.5641-1.8724,3.3203-2.9849,5.1805-.9919,1.6643-2.0099,3.3705-2.9052,5.0023-1.5863,2.8931-2.3479,6.1633-3.0854,9.3257-.6556,2.8252-1.2797,5.4917-2.435,7.8822-1.7944,3.7075-4.7329,8.8426-9.5252,10.6035-2.3517.8637-4.2407,1.1211-5.7732.7848-2.06-.4514-3.4624-1.9894-5.0841-3.7707l-.704-.7477c-.2395-.3669-.4848-.7317-.7281-1.096-1.1293-1.6866-2.2011-3.282-2.6692-5.032.2712-1.6586,1.2575-3.792,2.2996-6.0479,1.9131-4.1376,3.8896-8.4165,2.1788-11.3003-.8303-1.3986-2.3869-2.2855-4.7607-2.6757-5.2142-.8451-7.9613,3.9816-10.6176,8.6495l-.2395.416c-2.0173,3.5413-7.0158,5.4166-8.6375,3.7903.1263-.3798.2583-.758.3827-1.1331.7932-2.3145,1.5436-4.4998,1.4768-6.2413-.1933-5.2566-5.8177-11.13-10.1196-12.0736-1.3933-.3057-2.6433-.1198-3.6166.5368-1.4304.9649-2.1826,2.8754-2.2401,5.6775-.028,1.3178,1.1757,3.1966,2.567,5.3745,1.0235,1.6021,2.086,3.2609,2.3403,4.3113.6539,2.6952.5982,7.6511-.4791,10.7903-2.7677.4078-5.723,1.1823-8.5204,1.9643-.8099.2275-1.6031.4662-2.3776.6994-3.3231,1.0049-6.193,1.8724-8.9476,1.2687-1.9169-.4198-3.7057-1.5593-5.4723-3.4839-2.2994-2.5039-2.9273-4.9176-3.598-7.4737-.8358-3.1957-1.6976-6.5002-5.9067-9.8326-4.5677-3.6147-8.3106-5.6515-11.784-6.414-3.8898-.8525-7.3595-.0306-10.311,2.4455-2.4018,2.0145-3.6501,4.6688-3.5183,7.4698.1394,2.9014,1.7593,5.7239,4.564,7.9492,2.5874,2.0525,6.2597,3.1457,9.8113,4.2026,3.1576.9398,6.4231,1.9133,8.7914,3.532,2.9591,2.0238,8.0987,9.8941,8.8715,13.5848.6501,3.1031-.7449,5.2056-2.2233,7.4318-1.5548,2.347-3.1672,4.7712-2.6395,8.4536.26,1.8342,1.0625,3.1782,1.837,4.4794.8341,1.3986,1.6253,2.7221,1.6196,4.5973,0,1.7488-2.2456,6.6423-3.3045,8.2119-6.8113,10.0873-21.0602,7.2443-33.6337,4.7348-1.9224-.3836-3.791-.757-5.5706-1.069-9.6107-1.6894-16.5875,2.6228-17.5385,7.587-.6018,3.1576,1.3132,7.0929,8.5036,8.6699,1.1701.2572,2.4575.4411,3.8264.5507,7.1533.5702,14.4086-.9779,21.4226-2.4752,5.1398-1.0967,10.4504-2.2308,15.564-2.474,2.151-.1021,4.8166.1392,7.1366.6482,3.7075.8135,6.1892,2.1872,6.8039,3.7697.4887,1.251-.1244,2.7538-1.8184,4.4672-1.943,1.9626-3.232,1.8789-4.3875,1.6253-.3973-.0864-.7968-.2052-1.1962-.3251-.4624-.1373-.9305-.2749-1.4153-.3808-.9324-.2052-2.3683-.404-4.0661.2332-2.4054.8982-3.2674,2.463-3.7948,3.8757-1.6179,4.3364-1.3931,4.6837-1.2149,4.9623l.0483.078c-.26,2.4594.8508,5.2279,4.744,6.4214,1.3914.4253,2.8792.7875,4.3189,1.1376,2.1918.5341,4.2629,1.0393,5.2288,1.5993,5.3848,3.1301,7.2684,7.9594,5.1695,13.2524-2.4742,6.2365-8.9031,11.5928-15.1183,16.7743-3.4624,2.8866-6.7334,5.6142-9.2559,8.4228l-1.4321,1.6067c-3.1485,3.5432-5.6338,6.3425-9.9376,9.3377-.5853.4069-1.2371.835-1.9207,1.2864-3.9044,2.5651-8.76,5.7572-9.2095,9.9254-.5164,4.7887,3.8635,9.8895,9.5661,11.1405,1.1089.2423,2.2159.326,3.2916.2461,6.0981-.4497,11.743-7.3215,13.8774-10.8925,1.7385-2.9117,2.608-6.1567,3.4492-9.293,1.0068-3.7661,2.0508-7.6576,4.6105-10.9259,4.5249-5.7759,8.3104-10.8487,12.2762-16.4463,6.2782-8.8603,10.6045-11.8498,13.1287-12.7962,2.8902-1.0848,4.3076-1.134,4.9855-.9845,1.0254.2248,1.317,1.1842,1.2,3.9501-.1227,2.8567,1.1515,4.5992,3.7929,5.1777l.1988.0409c2.5058.4867,7.404.3595,10.4485-1.445,1.3893-.8247,2.2159-1.8937,2.4537-3.1755.4179-2.254-.2416-4.8973-1.904-7.6454-2.9089-4.8071-5.0877-9.1389-2.2568-13.4753,3.7838-5.801,13.348-9.0961,21.3223-7.3474,3.9656.8704,7.0993,2.9127,9.0665,5.9098,2.983,4.5507,3.061,9.9711.2005,14.1477-.6427.9427-2.3162,1.9959-4.0828,3.1141-3.5348,2.2327-7.9351,5.0124-5.6969,8.5732.6984,1.1108,1.5287,1.7581,2.5448,1.981,1.0811.2368,2.1083-.0827,3.0203-.3631.8451-.2638,1.6105-.5052,2.2159-.2461.9697.4244,2.1901,1.6904,3.3659,2.9144,1.7349,1.8018,3.4011,3.4839,5.0822,3.6157,1.7756.1299,3.0667-.1765,3.9527-.9362,1.4952-1.2845,1.3819-3.5274,1.2723-5.696-.0483-.9585.1858-1.6959.6781-2.1315.5313-.4691,1.2909-.536,1.8351-.509,1.3763.0696,2.9033,1.1563,4.4041,2.1956,1.9745,1.368,3.9268,2.5039,5.4128,1.9494.6391-.2378,1.0885-.7104,1.2706-1.3318.2824-.979-.1225-2.2317-1.146-3.5265-1.4081-1.788-2.4706-3.493-1.174-6.2877.6762-1.4543,2.905-3.2246,5.9663-4.7347,1.6346-.808,3.0389-2.229,4.5248-3.7336,2.4965-2.53,5.0784-5.1472,8.905-4.9549,12.1906.6102,12.8446.3334,13.073-.6324.2619-1.1182-1.1591-1.8446-5.734-3.9919-2.0619-.9659-4.2983-3.9769-4.6495-7.4447.6298-.4088,1.317-.8805,2.0989-1.4155,2.5355-1.7395,6.9266-1.8454,13.8142-.3342,3.509.769,7.2146,1.8519,10.7958,2.8986,3.3361.9761,6.4901,1.8973,9.282,2.5104q.0019,0,.0036.001c4.3057.9436,9.3824,1.5677,10.4504-2.009.4011-1.3448.2488-2.5465-.4514-3.5729Z"/>
      </g>
    </g>
  </g>
</svg>